<svg id="Layer_1" data-name="Layer 1" xmlns="http://www.w3.org/2000/svg" viewBox="0 0 556.01 199"><defs><style>.cls-1{fill:#47292a;}.cls-1,.cls-10,.cls-100,.cls-101,.cls-102,.cls-103,.cls-104,.cls-105,.cls-106,.cls-107,.cls-108,.cls-109,.cls-11,.cls-110,.cls-111,.cls-112,.cls-113,.cls-114,.cls-115,.cls-116,.cls-117,.cls-118,.cls-119,.cls-12,.cls-120,.cls-121,.cls-122,.cls-123,.cls-124,.cls-125,.cls-126,.cls-127,.cls-128,.cls-129,.cls-13,.cls-130,.cls-131,.cls-132,.cls-133,.cls-134,.cls-135,.cls-136,.cls-137,.cls-138,.cls-139,.cls-14,.cls-140,.cls-141,.cls-142,.cls-143,.cls-144,.cls-145,.cls-146,.cls-147,.cls-148,.cls-149,.cls-15,.cls-150,.cls-151,.cls-152,.cls-153,.cls-154,.cls-155,.cls-156,.cls-157,.cls-158,.cls-159,.cls-16,.cls-160,.cls-161,.cls-162,.cls-163,.cls-164,.cls-165,.cls-166,.cls-167,.cls-168,.cls-169,.cls-17,.cls-170,.cls-171,.cls-172,.cls-173,.cls-174,.cls-175,.cls-176,.cls-177,.cls-178,.cls-179,.cls-18,.cls-180,.cls-181,.cls-182,.cls-183,.cls-184,.cls-185,.cls-186,.cls-187,.cls-188,.cls-189,.cls-19,.cls-190,.cls-191,.cls-192,.cls-193,.cls-194,.cls-195,.cls-196,.cls-197,.cls-198,.cls-199,.cls-2,.cls-20,.cls-200,.cls-201,.cls-202,.cls-203,.cls-204,.cls-205,.cls-206,.cls-207,.cls-208,.cls-209,.cls-21,.cls-210,.cls-211,.cls-212,.cls-213,.cls-214,.cls-215,.cls-216,.cls-217,.cls-218,.cls-219,.cls-22,.cls-220,.cls-221,.cls-222,.cls-223,.cls-224,.cls-225,.cls-226,.cls-227,.cls-228,.cls-229,.cls-23,.cls-230,.cls-231,.cls-232,.cls-233,.cls-234,.cls-235,.cls-236,.cls-237,.cls-238,.cls-239,.cls-24,.cls-240,.cls-241,.cls-242,.cls-243,.cls-244,.cls-245,.cls-246,.cls-247,.cls-248,.cls-249,.cls-25,.cls-250,.cls-251,.cls-252,.cls-253,.cls-254,.cls-255,.cls-256,.cls-257,.cls-258,.cls-259,.cls-26,.cls-260,.cls-261,.cls-262,.cls-263,.cls-264,.cls-265,.cls-266,.cls-267,.cls-268,.cls-269,.cls-27,.cls-270,.cls-271,.cls-272,.cls-273,.cls-274,.cls-275,.cls-276,.cls-277,.cls-278,.cls-279,.cls-28,.cls-280,.cls-281,.cls-282,.cls-283,.cls-284,.cls-285,.cls-286,.cls-287,.cls-288,.cls-289,.cls-29,.cls-290,.cls-291,.cls-292,.cls-293,.cls-294,.cls-295,.cls-296,.cls-297,.cls-298,.cls-299,.cls-3,.cls-30,.cls-300,.cls-301,.cls-302,.cls-303,.cls-304,.cls-305,.cls-306,.cls-307,.cls-308,.cls-309,.cls-31,.cls-310,.cls-311,.cls-312,.cls-313,.cls-314,.cls-315,.cls-316,.cls-317,.cls-318,.cls-319,.cls-32,.cls-320,.cls-321,.cls-322,.cls-323,.cls-324,.cls-325,.cls-326,.cls-327,.cls-328,.cls-329,.cls-33,.cls-330,.cls-331,.cls-34,.cls-35,.cls-36,.cls-37,.cls-38,.cls-39,.cls-4,.cls-40,.cls-41,.cls-42,.cls-43,.cls-44,.cls-45,.cls-46,.cls-47,.cls-48,.cls-49,.cls-5,.cls-50,.cls-51,.cls-52,.cls-53,.cls-54,.cls-55,.cls-56,.cls-57,.cls-58,.cls-59,.cls-6,.cls-60,.cls-61,.cls-62,.cls-63,.cls-64,.cls-65,.cls-66,.cls-67,.cls-68,.cls-69,.cls-7,.cls-70,.cls-71,.cls-72,.cls-73,.cls-74,.cls-75,.cls-76,.cls-77,.cls-78,.cls-79,.cls-8,.cls-80,.cls-81,.cls-82,.cls-83,.cls-84,.cls-85,.cls-86,.cls-87,.cls-88,.cls-89,.cls-9,.cls-90,.cls-91,.cls-92,.cls-93,.cls-94,.cls-95,.cls-96,.cls-97,.cls-98,.cls-99{fill-rule:evenodd;}.cls-2{fill:#ce483c;}.cls-3{fill:#2a2d2e;}.cls-4{fill:#269f78;}.cls-5{fill:#239b72;}.cls-6{fill:#cc4a3f;}.cls-7{fill:#331718;}.cls-8{fill:#d44335;}.cls-9{fill:#3e3234;}.cls-10{fill:#c9473e;}.cls-11{fill:#595759;}.cls-12{fill:#202021;}.cls-13{fill:#4d2c2e;}.cls-14{fill:#dc4539;}.cls-15{fill:#273438;}.cls-16{fill:#19a37b;}.cls-17{fill:#1aa27c;}.cls-18{fill:#15a67d;}.cls-19{fill:#1aa17c;}.cls-20{fill:#18a37b;}.cls-21{fill:#1ba17a;}.cls-22{fill:#317163;}.cls-23{fill:#2e7665;}.cls-24{fill:#633434;}.cls-25{fill:#331c1d;}.cls-26{fill:#c9463c;}.cls-27{fill:#df4134;}.cls-28{fill:#233436;}.cls-29{fill:#18a378;}.cls-30{fill:#1c9e74;}.cls-31{fill:#eaab3a;}.cls-32{fill:#2c3430;}.cls-33{fill:#e04530;}.cls-34{fill:#18a47c;}.cls-35{fill:#4d2e33;}.cls-36{fill:#267866;}.cls-37{fill:#2d2c2e;}.cls-38{fill:#239d79;}.cls-39{fill:#db4234;}.cls-40{fill:#ae4746;}.cls-41{fill:#1f9c74;}.cls-42{fill:#29282a;}.cls-43{fill:#22a47a;}.cls-44{fill:#ac4745;}.cls-45{fill:#e53e2a;}.cls-46{fill:#259776;}.cls-47{fill:#282f34;}.cls-48{fill:#d2a153;}.cls-49{fill:#249974;}.cls-50{fill:#1aa27a;}.cls-51{fill:#229675;}.cls-52{fill:#1fa17c;}.cls-53{fill:#19a279;}.cls-54{fill:#75767a;}.cls-55{fill:#dc473b;}.cls-56{fill:#1ea278;}.cls-57{fill:#249d75;}.cls-58{fill:#9f7c3e;}.cls-59{fill:#f2ae30;}.cls-60{fill:#222b38;}.cls-61{fill:#1ea37c;}.cls-62{fill:#dc4536;}.cls-63{fill:#d84537;}.cls-64{fill:#d94535;}.cls-65{fill:#42262c;}.cls-66{fill:#c89946;}.cls-67{fill:#262f37;}.cls-68{fill:#21a47c;}.cls-69{fill:#eeac35;}.cls-70{fill:#e5a93a;}.cls-71{fill:#552321;}.cls-72{fill:#dc4334;}.cls-73{fill:#2a2d38;}.cls-74{fill:#7c5c30;}.cls-75{fill:#249976;}.cls-76{fill:#1ba078;}.cls-77{fill:#997d42;}.cls-78{fill:#6b542a;}.cls-79{fill:#a17c41;}.cls-80{fill:#332c2a;}.cls-81{fill:#909497;}.cls-82{fill:#269976;}.cls-83{fill:#eead37;}.cls-84{fill:#292a2d;}.cls-85{fill:#2a2b2c;}.cls-86{fill:#eeae35;}.cls-87{fill:#745936;}.cls-88{fill:#433526;}.cls-89{fill:#1e2c3f;}.cls-90{fill:#745737;}.cls-91{fill:#705439;}.cls-92{fill:#e6a838;}.cls-93{fill:#2a272a;}.cls-94{fill:#b08c46;}.cls-95{fill:#1aa077;}.cls-96{fill:#352e2b;}.cls-97{fill:#263337;}.cls-98{fill:#18a47b;}.cls-99{fill:#583c25;}.cls-100{fill:#bc9246;}.cls-101{fill:#209d78;}.cls-102{fill:#8d8d93;}.cls-103{fill:#272c31;}.cls-104{fill:#203034;}.cls-105{fill:#239d78;}.cls-106{fill:#6a4f29;}.cls-107{fill:#dda643;}.cls-108{fill:#20a17a;}.cls-109{fill:#1aa17a;}.cls-110{fill:#352f2f;}.cls-111{fill:#292e36;}.cls-112{fill:#243037;}.cls-113{fill:#19a37a;}.cls-114{fill:#1e9771;}.cls-115{fill:#8d8e91;}.cls-116{fill:#19a37d;}.cls-117{fill:#929397;}.cls-118{fill:#229572;}.cls-119{fill:#1f9476;}.cls-120{fill:#eead36;}.cls-121{fill:#1f262e;}.cls-122{fill:#1d9e79;}.cls-123{fill:#9f8247;}.cls-124{fill:#33302f;}.cls-125{fill:#2b2a2e;}.cls-126{fill:#58543b;}.cls-127{fill:#796134;}.cls-128{fill:#19a37c;}.cls-129{fill:#232f3a;}.cls-130{fill:#ca983c;}.cls-131{fill:#da4337;}.cls-132{fill:#4e292e;}.cls-133{fill:#e8aa36;}.cls-134{fill:#6f582c;}.cls-135{fill:#111716;}.cls-136{fill:#282c2e;}.cls-137{fill:#232f34;}.cls-138{fill:#d84032;}.cls-139{fill:#222733;}.cls-140{fill:#219c76;}.cls-141{fill:#dc4233;}.cls-142{fill:#1da27c;}.cls-143{fill:#6b423f;}.cls-144{fill:#ecad36;}.cls-145{fill:#26977b;}.cls-146{fill:#254b4c;}.cls-147{fill:#d84536;}.cls-148{fill:#67262a;}.cls-149{fill:#4c2b2c;}.cls-150{fill:#1ca07a;}.cls-151{fill:#7c5e2d;}.cls-152{fill:#e3a83c;}.cls-153{fill:#2a262e;}.cls-154{fill:#db4637;}.cls-155{fill:#a64342;}.cls-156{fill:#22a27c;}.cls-157{fill:#90743a;}.cls-158{fill:#eeae34;}.cls-159{fill:#805035;}.cls-160{fill:#efae33;}.cls-161{fill:#f07731;}.cls-162{fill:#312624;}.cls-163{fill:#1b9676;}.cls-164{fill:#27302c;}.cls-165{fill:#c3995e;}.cls-166{fill:#57332c;}.cls-167{fill:#242627;}.cls-168{fill:#121b1e;}.cls-169{fill:#1f9b77;}.cls-170{fill:#be6b3e;}.cls-171{fill:#ef7732;}.cls-172{fill:#453332;}.cls-173{fill:#21a07c;}.cls-174{fill:#8e4a31;}.cls-175{fill:#212928;}.cls-176{fill:#ef7832;}.cls-177{fill:#975544;}.cls-178{fill:#3b2d2d;}.cls-179{fill:#279b7b;}.cls-180{fill:#1d9574;}.cls-181{fill:#202926;}.cls-182{fill:#1fa27f;}.cls-183{fill:#342c2a;}.cls-184{fill:#131c19;}.cls-185{fill:#209e76;}.cls-186{fill:#6f3a2c;}.cls-187{fill:#55382a;}.cls-188{fill:#a9693e;}.cls-189{fill:#1d9d78;}.cls-190{fill:#249d77;}.cls-191{fill:#232c26;}.cls-192{fill:#ba6748;}.cls-193{fill:#132a2d;}.cls-194{fill:#19a17b;}.cls-195{fill:#202b28;}.cls-196{fill:#90794a;}.cls-197{fill:#272a35;}.cls-198{fill:#1ea07c;}.cls-199{fill:#2b3b36;}.cls-200{fill:#efae36;}.cls-201{fill:#202535;}.cls-202{fill:#c19248;}.cls-203{fill:#2b2f34;}.cls-204{fill:#7e6136;}.cls-205{fill:#14a778;}.cls-206{fill:#202832;}.cls-207{fill:#473a2e;}.cls-208{fill:#523825;}.cls-209{fill:#936e48;}.cls-210{fill:#322e33;}.cls-211{fill:#242835;}.cls-212{fill:#219b78;}.cls-213{fill:#1ea37f;}.cls-214{fill:#9f7e51;}.cls-215{fill:#c49748;}.cls-216{fill:#1b2d39;}.cls-217{fill:#0a1e17;}.cls-218{fill:#f07830;}.cls-219{fill:#1a332d;}.cls-220{fill:#1a9973;}.cls-221{fill:#1a1c18;}.cls-222{fill:#1d2e28;}.cls-223{fill:#1f9c7a;}.cls-224{fill:#422d1e;}.cls-225{fill:#c24b47;}.cls-226{fill:#1a2b2a;}.cls-227{fill:#19a17c;}.cls-228{fill:#773e2d;}.cls-229{fill:#2c2d2e;}.cls-230{fill:#ce443b;}.cls-231{fill:#1e9f75;}.cls-232{fill:#ce4339;}.cls-233{fill:#83422a;}.cls-234{fill:#5d6369;}.cls-235{fill:#4c3420;}.cls-236{fill:#122f3e;}.cls-237{fill:#6f372a;}.cls-238{fill:#753b29;}.cls-239{fill:#79331b;}.cls-240{fill:#6b3125;}.cls-241{fill:#2b262a;}.cls-242{fill:#2b3129;}.cls-243{fill:#dc3f30;}.cls-244{fill:#dc3e2e;}.cls-245{fill:#212627;}.cls-246{fill:#212f39;}.cls-247{fill:#212a36;}.cls-248{fill:#1c9f78;}.cls-249{fill:#bd9145;}.cls-250{fill:#282d23;}.cls-251{fill:#1ba47c;}.cls-252{fill:#252835;}.cls-253{fill:#259f7a;}.cls-254{fill:#793c2a;}.cls-255{fill:#3d2b2d;}.cls-256{fill:#372d34;}.cls-257{fill:#815039;}.cls-258{fill:#252f34;}.cls-259{fill:#24a180;}.cls-260{fill:#202d32;}.cls-261{fill:#523d28;}.cls-262{fill:#272e39;}.cls-263{fill:#967543;}.cls-264{fill:#262933;}.cls-265{fill:#2f2f32;}.cls-266{fill:#1d9f79;}.cls-267{fill:#685334;}.cls-268{fill:#9c7c54;}.cls-269{fill:#3b2e29;}.cls-270{fill:#223137;}.cls-271{fill:#2b2e31;}.cls-272{fill:#18a278;}.cls-273{fill:#172520;}.cls-274{fill:#249f78;}.cls-275{fill:#c3473f;}.cls-276{fill:#1d9e76;}.cls-277{fill:#d5473c;}.cls-278{fill:#d44337;}.cls-279{fill:#209673;}.cls-280{fill:#6d311a;}.cls-281{fill:#d54133;}.cls-282{fill:#934f36;}.cls-283{fill:#7b362d;}.cls-284{fill:#172431;}.cls-285{fill:#2fa284;}.cls-286{fill:#a8463c;}.cls-287{fill:#1e2b39;}.cls-288{fill:#6a382b;}.cls-289{fill:#1fa57d;}.cls-290{fill:#d74133;}.cls-291{fill:#202b34;}.cls-292{fill:#17a37a;}.cls-293{fill:#564527;}.cls-294{fill:#edad36;}.cls-295{fill:#c74c42;}.cls-296{fill:#713e37;}.cls-297{fill:#273137;}.cls-298{fill:#363239;}.cls-299{fill:#23322e;}.cls-300{fill:#f3b02f;}.cls-301{fill:#e9a937;}.cls-302{fill:#352226;}.cls-303{fill:#16a47c;}.cls-304{fill:#4b2928;}.cls-305{fill:#3e2b26;}.cls-306{fill:#d9a13f;}.cls-307{fill:#1f313a;}.cls-308{fill:#273337;}.cls-309{fill:#1ba67c;}.cls-310{fill:#1aa07a;}.cls-311{fill:#171a1b;}.cls-312{fill:#1ea27b;}.cls-313{fill:#112d41;}.cls-314{fill:#2e1e15;}.cls-315{fill:#5e342b;}.cls-316{fill:#efad38;}.cls-317{fill:#239578;}.cls-318{fill:#5e332e;}.cls-319{fill:#5e422f;}.cls-320{fill:#543529;}.cls-321{fill:#18a17f;}.cls-322{fill:#0a313e;}.cls-323{fill:#5d2f25;}.cls-324{fill:#28363c;}.cls-325{fill:#253139;}.cls-326{fill:#269b7b;}.cls-327{fill:#20a47b;}.cls-328{fill:#97563d;}.cls-329{fill:#f07832;}.cls-330{fill:#f07932;}.cls-331{fill:#5b443a;}</style></defs><path class="cls-1" d="M-187.65,458.39a1.62,1.62,0,0,0,2,1q6,4,0,8.5-7.47.9-6.5-6.5A6.88,6.88,0,0,1-187.65,458.39Z" transform="translate(404.65 -269.39)"/><path class="cls-2" d="M-185.65,466.39q-7,.74-4-5.5Q-182.49,459.67-185.65,466.39Z" transform="translate(404.65 -269.39)"/><path class="cls-3" d="M-69.65,465.39a12.63,12.63,0,0,1,2-8l-1-2a2.58,2.58,0,0,1-3,.5q4.29-2.67,2-7a7.18,7.18,0,0,0-5.5,3.5,8.85,8.85,0,0,1-.5,7q-11.61,3.5-7-7.5a11.1,11.1,0,0,0,11.5-5.5,6.54,6.54,0,0,0-.5-6,7.24,7.24,0,0,0-2.5,2l-.5-1q5.41-4.92,1-11a11.48,11.48,0,0,1-5,3,55.89,55.89,0,0,1,5-7.5q-.82-4.51-3.5-.5a6.57,6.57,0,0,1,2.5-5,28.29,28.29,0,0,1-1.5-4q-11.76,9.87-1-1a6.54,6.54,0,0,0-.5-6,2.56,2.56,0,0,1-3,1.5,7.05,7.05,0,0,0,2-8.5q-6.42,3.56-5.5,11a7.1,7.1,0,0,1-7.5,1.5q-4-4,0-8l7-1,5.5-5.5a63.77,63.77,0,0,0-2.5-13,2.87,2.87,0,0,1,1-3q1.88,7.92,3,16a16.81,16.81,0,0,1,9,3q6.47-4.86,9,2.5-1,6.12-7,4a5.77,5.77,0,0,1-2-5.5l-8-2a6.8,6.8,0,0,0,1,4q7.92,3.89,0,3.5a6.51,6.51,0,0,1,1,4.5,26.26,26.26,0,0,1,9,3.5,13.37,13.37,0,0,1-8-1.5,4.86,4.86,0,0,0,1,4q6.47,2.79,1,2a3.2,3.2,0,0,0-.5,4,12.54,12.54,0,0,0,12,2c1.81.92,1.64,1.76-.5,2.5a3.35,3.35,0,0,0,3,1.5c.33.67.67,1.33,1,2-2.34-1.57-4.34-1.23-6,1q-1.88-5.88-8-6v8a6,6,0,0,1,5,2,3.09,3.09,0,0,1-3,1v5a18.6,18.6,0,0,1,8.5,3q9.65-5.76,9,5c-2,2.11-4.18,2.44-6.5,1a8.55,8.55,0,0,1-3-4.5,15.48,15.48,0,0,0-7-2.5,8.39,8.39,0,0,0,.5,4,62.14,62.14,0,0,0,5.5,3,28.55,28.55,0,0,0-5,1,22.27,22.27,0,0,0,5.5,6q1.49,5.89-4.5,7A4.74,4.74,0,0,1-69.65,465.39Z" transform="translate(404.65 -269.39)"/><path class="cls-4" d="M-57.65,454.39q-3.12-7.39,5-6Q-51,455.05-57.65,454.39Z" transform="translate(404.65 -269.39)"/><path class="cls-5" d="M-77.65,459.39q-6.61.66-5-6h6A12.1,12.1,0,0,1-77.65,459.39Z" transform="translate(404.65 -269.39)"/><path class="cls-6" d="M-63.65,466.39q-7,.74-4-5.5Q-60.49,459.67-63.65,466.39Z" transform="translate(404.65 -269.39)"/><path class="cls-7" d="M-169.65,441.39h1q1.82,8.7,7,1.5c-.89-2.16-2.55-3-5-2.5v-2q9.21.8,4,8.5Q-169.91,448.89-169.65,441.39Z" transform="translate(404.65 -269.39)"/><path class="cls-8" d="M-168.65,441.39l2-1c2.45-.49,4.11.34,5,2.5Q-166.82,450.09-168.65,441.39Z" transform="translate(404.65 -269.39)"/><path class="cls-9" d="M-78.65,433.39a9.81,9.81,0,0,1-1,6c-.7-1.88-1.7-2.22-3-1a27.09,27.09,0,0,0-1.5,7q-9,5.5-8-5a12.58,12.58,0,0,1,7.5-2.5q3.8-2,0-3.5A9.91,9.91,0,0,1-78.65,433.39Z" transform="translate(404.65 -269.39)"/><path class="cls-10" d="M-86.65,446.39q-5.44-.64-4-5.5Q-81.72,439-86.65,446.39Z" transform="translate(404.65 -269.39)"/><path class="cls-11" d="M-168.65,441.39h-1q-1.09-5.29-4-2a5.12,5.12,0,0,1,5-5q-3.3,2.91,2,4v2Z" transform="translate(404.65 -269.39)"/><path class="cls-12" d="M-173.65,439.39a20.6,20.6,0,0,0-5-10,20,20,0,0,1,4,3.5,18.24,18.24,0,0,1,6,1.5A5.12,5.12,0,0,0-173.65,439.39Z" transform="translate(404.65 -269.39)"/><path class="cls-13" d="M-56.65,434.39c-.33-.67-.67-1.33-1-2a8.27,8.27,0,0,1,9.5,1q1,10.5-8,5A8.39,8.39,0,0,1-56.65,434.39Z" transform="translate(404.65 -269.39)"/><path class="cls-14" d="M-49.65,438.39h-5v-5h5Z" transform="translate(404.65 -269.39)"/><path class="cls-15" d="M-136.65,440.39a19.9,19.9,0,0,1-8,11.5q-9.07,1.68-10-7.5a37.84,37.84,0,0,1,5-14.5,71.18,71.18,0,0,1-10,3.5q-8.53-.76-7.5-9a31.22,31.22,0,0,1,19.5-14,1.62,1.62,0,0,1,2,1,28.8,28.8,0,0,0-17.5,11q-.73,10.25,9.5,7.5a50.15,50.15,0,0,0,13-13.5,3.11,3.11,0,0,0-3-1,4.62,4.62,0,0,1,4-1,31.16,31.16,0,0,0,25,.5q4.31-2.4,3-6.5a11.41,11.41,0,0,0,6,2,31.31,31.31,0,0,1,19.5,14q1.09,7.65-6.5,9a102.21,102.21,0,0,1-12-4.5,38.1,38.1,0,0,1,6,16.5,5.76,5.76,0,0,1-3,5.5q-12.67,2.16-15-10.5a2.23,2.23,0,0,1-1.5-1,69.3,69.3,0,0,1-2,14q-6.5,6-13,0a59.66,59.66,0,0,1-2-14A2.23,2.23,0,0,1-136.65,440.39Z" transform="translate(404.65 -269.39)"/><path class="cls-16" d="M-116.65,440.39a40.76,40.76,0,0,1-3-20,143.7,143.7,0,0,1,7.5,15q1.44,2.64,3.5,1a132.49,132.49,0,0,0-6.5-14,3.2,3.2,0,0,1,.5-4,56.81,56.81,0,0,1,12,22.5q-.25,9.69-9,5A37.74,37.74,0,0,1-116.65,440.39Z" transform="translate(404.65 -269.39)"/><path class="cls-17" d="M-136.65,440.39a14.62,14.62,0,0,1-9.5,7q-5.7-.7-4.5-6.5c.17-1.5.33-3,.5-4.5a74.89,74.89,0,0,1,11.5-18,3.2,3.2,0,0,1,.5,4q-3.45,6.66-6.5,13.5c.51,1.83,1.34,2,2.5.5a167.41,167.41,0,0,1,8.5-16,8.73,8.73,0,0,1,.5,7Q-134.9,433.9-136.65,440.39Z" transform="translate(404.65 -269.39)"/><path class="cls-18" d="M-130.65,422.39a82,82,0,0,1,3,18c.67,1.33,1.33,1.33,2,0a158.26,158.26,0,0,0,1.5-18,3.31,3.31,0,0,0,1.5,2,84.51,84.51,0,0,1,1.5,23q-4.75,7.38-11,1A96.88,96.88,0,0,1-130.65,422.39Z" transform="translate(404.65 -269.39)"/><path class="cls-19" d="M-145.65,411.39c1.53,0,2,.69,1.5,2a50.63,50.63,0,0,0-11.5,9,2,2,0,0,0,3,.5,36.26,36.26,0,0,0,9-7.5,3.11,3.11,0,0,1,3,1,50.15,50.15,0,0,1-13,13.5q-10.24,2.75-9.5-7.5A28.8,28.8,0,0,1-145.65,411.39Z" transform="translate(404.65 -269.39)"/><path class="cls-20" d="M-39.65,410.39a2.23,2.23,0,0,0,1.5-1c.33-2,.67-4,1-6a176.54,176.54,0,0,0,1.5,19q1,1.92,2.5,0a179.77,179.77,0,0,0,.5-19h3a72.28,72.28,0,0,1,1.5,23q-2,7.49-9.5,6.5a29.87,29.87,0,0,1-2.5-4.5A62.74,62.74,0,0,1-39.65,410.39Z" transform="translate(404.65 -269.39)"/><path class="cls-21" d="M-92.65,430.39a27.14,27.14,0,0,1-20-14l1.5-1q6,4.28,12.5,8l1-1a86,86,0,0,0-12-10,24,24,0,0,1,17.5,7Q-87.2,425.09-92.65,430.39Z" transform="translate(404.65 -269.39)"/><path class="cls-22" d="M-127.65,440.39a82,82,0,0,0-3-18,2.87,2.87,0,0,1,3-1Z" transform="translate(404.65 -269.39)"/><path class="cls-23" d="M-125.65,440.39v-19h3v3a3.31,3.31,0,0,1-1.5-2A158.26,158.26,0,0,1-125.65,440.39Z" transform="translate(404.65 -269.39)"/><path class="cls-24" d="M-298.65,420.39q-5.64,2.43-7-4a2.76,2.76,0,0,1,2-3h6a6.88,6.88,0,0,1-1,5v-4q-6.27-1-4,4.5a5,5,0,0,0,3,.5A.88.88,0,0,0-298.65,420.39Z" transform="translate(404.65 -269.39)"/><path class="cls-25" d="M43.35,414.39h1a5.74,5.74,0,0,1,6-2q3.91,4.14,0,8.5Q42.34,422.65,43.35,414.39Z" transform="translate(404.65 -269.39)"/><path class="cls-26" d="M44.35,414.39q7.63-3.12,5.5,5Q43.81,421.13,44.35,414.39Z" transform="translate(404.65 -269.39)"/><path class="cls-27" d="M-299.65,419.39a5,5,0,0,1-3-.5q-2.27-5.5,4-4.5v4A.88.88,0,0,1-299.65,419.39Z" transform="translate(404.65 -269.39)"/><path class="cls-28" d="M-44.65,418.39a6.93,6.93,0,0,0,1-4,12.23,12.23,0,0,1,3-8,4.62,4.62,0,0,1,1,4,62.74,62.74,0,0,0-.5,18,29.87,29.87,0,0,0,2.5,4.5q7.55,1,9.5-6.5a72.28,72.28,0,0,0-1.5-23h-3a179.77,179.77,0,0,1-.5,19q-1.47,1.92-2.5,0a51.11,51.11,0,0,0-2-20l2-2h3l7,2a3.1,3.1,0,0,0-3,1,111,111,0,0,0,5.5,20q4.23,8.37,12,4a25.13,25.13,0,0,0,0-10q-5.05-7.8-9.5-16a3.11,3.11,0,0,0-3-1,2.87,2.87,0,0,1,3-1v-3a5,5,0,0,0,3-.5,54.24,54.24,0,0,1,4-6.5v3a33.22,33.22,0,0,1,12,5c-2-.34-3.32.33-4,2a62.89,62.89,0,0,0-9-6l-1,1.5q5.45,5.89,11.5,11.5a9.19,9.19,0,0,0,1.5,2.5l-1,.5a70.56,70.56,0,0,1-13-11.5,5,5,0,0,0-3-.5,31.73,31.73,0,0,0,20,21,6.17,6.17,0,0,0,6-5,31,31,0,0,0-9-12l5,2q8.57,5.14,7.5,15a10.47,10.47,0,0,1-10.5,2.5,21.32,21.32,0,0,1-9.5-6.5,79.94,79.94,0,0,1,2.5,12q-1.53,12-12,5.5a54.16,54.16,0,0,1-6-10.5,122.12,122.12,0,0,1-2.5,12q-7.07,8-14,0Q-43.54,425.71-44.65,418.39Z" transform="translate(404.65 -269.39)"/><path class="cls-29" d="M-25.65,402.39a72.39,72.39,0,0,0,7,16.5,1.25,1.25,0,0,0,2,0q-3.3-9.34-7-18.5a3.11,3.11,0,0,1,3,1q4.45,8.21,9.5,16a25.13,25.13,0,0,1,0,10q-7.77,4.38-12-4a111,111,0,0,1-5.5-20A3.1,3.1,0,0,1-25.65,402.39Z" transform="translate(404.65 -269.39)"/><path class="cls-30" d="M-85.65,413.39h-6q-1.51-7.75,5.5-5A13,13,0,0,1-85.65,413.39Z" transform="translate(404.65 -269.39)"/><path class="cls-31" d="M-139.65,414.39q-6.51-6.28,3-7.5a36.07,36.07,0,0,0,8-9.5q1.45-3,4-1a15,15,0,0,0,10,10,7.06,7.06,0,0,0,3,2q1.31,4.1-3,6.5A31.16,31.16,0,0,1-139.65,414.39Z" transform="translate(404.65 -269.39)"/><path class="cls-32" d="M-131.65,405.39l2,4q3,4,6,0a2.26,2.26,0,0,1,1.5,1,13,13,0,0,0,.5-5q3.29,7.1-4.5,9Q-135.07,413.28-131.65,405.39Z" transform="translate(404.65 -269.39)"/><path class="cls-33" d="M-129.65,409.39q-.73-7,5.5-4a8.39,8.39,0,0,1,.5,4Q-126.65,413.4-129.65,409.39Z" transform="translate(404.65 -269.39)"/><path class="cls-34" d="M-5.65,399.39l3,2a31,31,0,0,1,9,12,6.17,6.17,0,0,1-6,5,31.73,31.73,0,0,1-20-21,5,5,0,0,1,3,.5,70.56,70.56,0,0,0,13,11.5l1-.5a9.19,9.19,0,0,1-1.5-2.5q-6.06-5.61-11.5-11.5l1-1.5A62.89,62.89,0,0,1-5.65,399.39Z" transform="translate(404.65 -269.39)"/><path class="cls-35" d="M-123.65,409.39a8.39,8.39,0,0,0-.5-4q-6.22-3-5.5,4l-2-4q2.86-4.25,8-2.5a7,7,0,0,1,2,2.5,13,13,0,0,1-.5,5A2.26,2.26,0,0,0-123.65,409.39Z" transform="translate(404.65 -269.39)"/><path class="cls-36" d="M-35.65,422.39a176.54,176.54,0,0,1-1.5-19c-.33,2-.67,4-1,6a2.23,2.23,0,0,1-1.5,1,4.62,4.62,0,0,0-1-4,6.89,6.89,0,0,0-1-5,1.11,1.11,0,0,1,1-1,14.68,14.68,0,0,1,1.5,5,5.5,5.5,0,0,1,1.5-3A51.11,51.11,0,0,1-35.65,422.39Z" transform="translate(404.65 -269.39)"/><path class="cls-37" d="M13.35,365.39h1a7,7,0,0,0,2,2.5,7.56,7.56,0,0,1,6,2.5q-6.57-.92-2,3.5a49.56,49.56,0,0,1,10,1.5,50.7,50.7,0,0,0-10,.5,4.24,4.24,0,0,0,2,1.5,15.36,15.36,0,0,0,7,3q-6.32.47-2,4.5a12.56,12.56,0,0,0,12-2.5c1,.44,1,1.11,0,2q4.57,2,7-2.5,6.85-2.47,8,4.5-2,5.64-8,3.5-2.43-4.53-7-2.5a2.58,2.58,0,0,1,.5,3q-4-5.82-10.5-3,1.88,7.11,9,7.5-5.22,1.22-1,5a25.13,25.13,0,0,0,10,0q4.44-6.56,9.5-.5a4.47,4.47,0,0,1-1.5,5.5,44.81,44.81,0,0,0-16-2,12.06,12.06,0,0,0,8,4.5,10.28,10.28,0,0,1-4,1.5,14.66,14.66,0,0,0,7,3.5,5.74,5.74,0,0,0-6,2h-1a8.79,8.79,0,0,0-1.5-5q-3.78,5.34-1.5-2a11.05,11.05,0,0,0-2.5-3,26.84,26.84,0,0,0-3.5,6q5.49,10.26-6,8.5-3.64-8.07,5-8.5a29.83,29.83,0,0,1,3-8.5,20.29,20.29,0,0,0-3-4.5q-5.19,5.3-1-2a39.12,39.12,0,0,0-5-7q-4.63,5.06-1,10.5a6.34,6.34,0,0,0-3.5.5v10q-4,4-8,0-2.52-7.72,5.5-9c1.59-1.94,1.25-3.44-1-4.5a12.4,12.4,0,0,0,7-9.5q-1.76-4.45-4-1a3.61,3.61,0,0,1,0-4.5,6.56,6.56,0,0,0-2.5-3.5,23.58,23.58,0,0,1-2.5,6c-.5,1-1.17,1.19-2,.5a43.1,43.1,0,0,0,3-8.5q-1.22-7-4.5-1A14.21,14.21,0,0,0,13.35,365.39Z" transform="translate(404.65 -269.39)"/><path class="cls-38" d="M54.35,404.39q-6.62.66-5-6Q57.5,397,54.35,404.39Z" transform="translate(404.65 -269.39)"/><path class="cls-39" d="M16.35,404.39a2.5,2.5,0,0,1,4,0v4Q15.85,408.89,16.35,404.39Z" transform="translate(404.65 -269.39)"/><path class="cls-40" d="M16.35,404.39q-.5,4.5,4,4v-4q3.86,3.38-1.5,5Q13.8,408.63,16.35,404.39Z" transform="translate(404.65 -269.39)"/><path class="cls-41" d="M33.35,418.39q-7.49-.75-3-6.5,4.23-1,5,3.5C34.66,416.41,34,417.41,33.35,418.39Z" transform="translate(404.65 -269.39)"/><path class="cls-42" d="M-298.65,420.39a.88.88,0,0,1-1-1,.88.88,0,0,0,1-1,6.88,6.88,0,0,0,1-5h-6a11.41,11.41,0,0,0,7-4.5,10.28,10.28,0,0,1-4-1.5,20,20,0,0,1,6-1.5l2-3a44.78,44.78,0,0,0-16,2q-4.77-6.58,3.5-8.5a6.06,6.06,0,0,1,4.5,3.5,25.13,25.13,0,0,0,10,0q4.77-4.65-2-5l6-1a41.08,41.08,0,0,0,4-6.5q-6.53-2.82-10.5,3a2.58,2.58,0,0,1,.5-3q-4.58-2-7,2.5-9.3,2.44-7-6.5a5.72,5.72,0,0,1,4.5-2,22.75,22.75,0,0,1,7,4l2.5-1c-1-.89-1-1.56,0-2a12.56,12.56,0,0,0,12,2.5q4.32-4-2-4.5c2.13-.67,4.13-1.33,6-2l2-1a6.23,6.23,0,0,0,0,6.5l-1,1.5q-2.7-3.88-4,1a12.39,12.39,0,0,0,7,9.5c-2.25,1.06-2.59,2.56-1,4.5q8,1.28,5.5,9-3.89,3.81-8,0a14.1,14.1,0,0,1,.5-8,3.93,3.93,0,0,0-1.5-3,1.66,1.66,0,0,1-2.5.5q3.64-5.44-1-10.5-6.51,4.42-3,11l-1,1q-3.53-5.79-5,1.5,1.65,3.69,3,7.5,8.34,1.33,5,9-11.52,2.48-6-8-5.91-13.44-5.5,2c-.85-1.62-1.85-2-3-1-.33,2.67-.67,5.33-1,8A2.23,2.23,0,0,1-298.65,420.39Z" transform="translate(404.65 -269.39)"/><path class="cls-43" d="M-303.65,404.39q-7,.74-4-5.5Q-300.49,397.67-303.65,404.39Z" transform="translate(404.65 -269.39)"/><path class="cls-44" d="M-269.65,409.39q-6.28.94-5.5-5Q-266.78,401-269.65,409.39Z" transform="translate(404.65 -269.39)"/><path class="cls-45" d="M-270.65,408.39h-3v-4Q-268.48,404-270.65,408.39Z" transform="translate(404.65 -269.39)"/><path class="cls-46" d="M-283.65,418.39q-7.49-.75-3-6.5Q-279,412.16-283.65,418.39Z" transform="translate(404.65 -269.39)"/><path class="cls-47" d="M-185.65,459.39a1.62,1.62,0,0,1-2-1,8.39,8.39,0,0,0-.5-4q-1.77,1.85-3.5,0a62.14,62.14,0,0,0,5.5-3,8.39,8.39,0,0,0,.5-4,31.65,31.65,0,0,0-7,2.5q-1.33,6.86-8,5-4.35-4.72,1-8a6.58,6.58,0,0,1,6.5,1.5q3.69-1.65,7.5-3a7.14,7.14,0,0,0,1-5q-7.32-.87,1-3a11.22,11.22,0,0,0,.5-8,9.86,9.86,0,0,0-7.5,6q-5.44-4.15-6.5,3-9,5.5-8-5,4.18-3.92,8.5,0a12.5,12.5,0,0,0,4-2.5q-1.82-1.33,0-2.5a10.74,10.74,0,0,0,11-2c1.26-1.86.93-3.52-1-5q4.38-1,2-5a7.94,7.94,0,0,1-7,1.5,26.26,26.26,0,0,1,9-3.5,7.15,7.15,0,0,0-1-5q-1.66,1.64-3,0,5.75-1.25,6-7l-8,2q-.79,9.21-8.5,4-.78-10.62,8.5-5l8-3a31.44,31.44,0,0,0,2.5-15q-10.82,16.78-30.5,13.5a33.07,33.07,0,0,1,11.5,15.5q3.09,12.42-9.5,10.5a71.2,71.2,0,0,1-6.5-6.5,24.49,24.49,0,0,1-5.5,18.5q-6.66,2.07-10.5-3.5-1.32-5.07-3-10a32.83,32.83,0,0,1-8.5,10.5q-12.66.83-8.5-11.5,1.11-4.14,2-8-6.24,8.5-16.5,6.5-5.57-2.53-3.5-8.5a32.42,32.42,0,0,1,10.5-12.5,18.72,18.72,0,0,1-13-1.5q-5.72-9.7,5-13.5a24.34,24.34,0,0,1,10-1.5h11a4.62,4.62,0,0,0,1,4,16.72,16.72,0,0,0,10,9,5,5,0,0,0,4,2.5,24.72,24.72,0,0,0,12-.5,5.81,5.81,0,0,0,4-2,34.13,34.13,0,0,1-6-8,13.81,13.81,0,0,1,0-7,5.83,5.83,0,0,0,2,4q8.52,13.35,24,9a8.84,8.84,0,0,0,6-3q17.43-13.81,11.5-36-5.43-7.62-10.5-15.5c-2.93.65-5.93,1.49-9,2.5a6.63,6.63,0,0,1,4-3,3.11,3.11,0,0,0-3-1,12.29,12.29,0,0,0,5-3.5q-1.38-4.41-3-8.5h-5a9.49,9.49,0,0,1,2.5-2,97.67,97.67,0,0,0,.5-14,5.5,5.5,0,0,0,1.5-3,81.88,81.88,0,0,0,1.5,13,23.81,23.81,0,0,0,3.5,11q8.43,11.63,16.5,23.5,8-4.27,16-9.5a1.83,1.83,0,0,0,1,2c1.55-2,3.21-2.32,5-1a82.39,82.39,0,0,0-18.5,13,26,26,0,0,0-5.5,17,20.93,20.93,0,0,0-.5,11,9.56,9.56,0,0,0,2.5,5q8.31,14.37,25,12.5,20.49-10,10.5-30.5-10.46-11.86-21,0-6.82,16.69,10.5,16.5a19.72,19.72,0,0,1,4-3.5v2q-8.49,10.07-16.5-1-3.89-10,2.5-18a16.87,16.87,0,0,1,14-4,20.22,20.22,0,0,1,10,11,71.66,71.66,0,0,1,3,13,41,41,0,0,0,3.5,8,69.74,69.74,0,0,0,8.5,6,1.77,1.77,0,0,0-2,2,15,15,0,0,1-10-10q-2.8-7.8-4,1a36.07,36.07,0,0,1-8,9.5q-9.51,1.22-3,7.5a4.62,4.62,0,0,0-4,1,36.26,36.26,0,0,1-9,7.5,2,2,0,0,1-3-.5,50.63,50.63,0,0,1,11.5-9c.53-1.31,0-2-1.5-2a1.62,1.62,0,0,0-2-1q-20.17-4.42-23.5-25a106.52,106.52,0,0,0-3.5,14q4.16,7.94,13,7.5,4,4,0,8-10,2-8.5-8.5a25.48,25.48,0,0,0-4.5-4c-.33,1-.67,2-1,3a12.4,12.4,0,0,0,4,6c-1.83.78-3.33.12-4.5-2a9.21,9.21,0,0,0,0,6q10.76,10.88-1,1a8.25,8.25,0,0,0,1.5,8c-.17.33-.33.67-.5,1a7.24,7.24,0,0,0-2.5-2,5.49,5.49,0,0,0,0,6q-5.44,5.87,0,12c-.17.33-.33.67-.5,1a7.24,7.24,0,0,0-2.5-2,6.54,6.54,0,0,0-.5,6,11.1,11.1,0,0,0,11.5,5.5q4,4,0,8-10,2-8.5-8.5-3.37-5.65-5.5,0,1.93,2.49,4,5c-1.83.78-3.33.12-4.5-2A13,13,0,0,0-185.65,459.39Z" transform="translate(404.65 -269.39)"/><path class="cls-48" d="M-212.65,398.39a24.72,24.72,0,0,1-12,.5,5,5,0,0,1-4-2.5A46.72,46.72,0,0,0-212.65,398.39Z" transform="translate(404.65 -269.39)"/><path class="cls-49" d="M-187.65,409.39q-7.48-.75-3-6.5Q-183,403.16-187.65,409.39Z" transform="translate(404.65 -269.39)"/><path class="cls-50" d="M-249.65,418.39q-16.52-.52-5.5-13,8-6.28,16.5-12a2,2,0,0,1,.5,3,55.73,55.73,0,0,0-12.5,12.5l1,.5a71.74,71.74,0,0,0,13-11.5,5,5,0,0,1,3-.5A55.8,55.8,0,0,1-249.65,418.39Z" transform="translate(404.65 -269.39)"/><path class="cls-51" d="M-161.65,413.39h-6q-1.51-7.75,5.5-5A13,13,0,0,1-161.65,413.39Z" transform="translate(404.65 -269.39)"/><path class="cls-52" d="M-215.65,433.39a11.54,11.54,0,0,1-9.5-6,113.59,113.59,0,0,1,1.5-24h3a161.37,161.37,0,0,0,.5,18,3.58,3.58,0,0,0,1.5,1,100.61,100.61,0,0,0,1-20h3q.51,10.29,2,20.5A13.65,13.65,0,0,1-215.65,433.39Z" transform="translate(404.65 -269.39)"/><path class="cls-53" d="M-198.65,422.39a12,12,0,0,1-8.5-4,87.24,87.24,0,0,0-6.5-15c.23-1.43.9-1.93,2-1.5q4.2,5.67,8,11.5a2,2,0,0,0,.5-3,78.55,78.55,0,0,0-6.5-10,3,3,0,0,1,2-2q11.34,7.69,11.5,21A10.32,10.32,0,0,0-198.65,422.39Z" transform="translate(404.65 -269.39)"/><path class="cls-53" d="M-234.65,429.39a10.59,10.59,0,0,1-7.5-2,25.13,25.13,0,0,1,0-10l8-14a4.81,4.81,0,0,1,4.5-3q-3.27,8.79-7,17.5c.51,1.83,1.34,2,2.5.5q3.61-8.11,7.5-16A35,35,0,0,1-234.65,429.39Z" transform="translate(404.65 -269.39)"/><path class="cls-54" d="M-181.65,426.39v-3a3.08,3.08,0,0,1-3-1,1.83,1.83,0,0,1,2-1C-180.72,422.87-180.39,424.53-181.65,426.39Z" transform="translate(404.65 -269.39)"/><path class="cls-55" d="M-198.65,438.39h-5v-5Q-196.27,431.77-198.65,438.39Z" transform="translate(404.65 -269.39)"/><path class="cls-56" d="M-196.65,454.39q-5.35-.39-4-6Q-191.71,447.31-196.65,454.39Z" transform="translate(404.65 -269.39)"/><path class="cls-57" d="M-171.65,459.39q-6.61.66-5-6Q-168.5,452-171.65,459.39Z" transform="translate(404.65 -269.39)"/><path class="cls-58" d="M-188.65,394.39a8.92,8.92,0,0,1,6-3A8.84,8.84,0,0,1-188.65,394.39Z" transform="translate(404.65 -269.39)"/><path class="cls-59" d="M-212.65,398.39a46.72,46.72,0,0,1-16-2,16.72,16.72,0,0,1-10-9v-3a50.7,50.7,0,0,1,10,.5,5.08,5.08,0,0,0-2,3.5,3.23,3.23,0,0,0,2,3,.88.88,0,0,0,1,1,2.23,2.23,0,0,0,1,1.5q9.48,3.25,9-6.5a7,7,0,0,0-3-4,5.52,5.52,0,0,0-3-3,38.59,38.59,0,0,0,5.5-5,27.32,27.32,0,0,0,3.5,13,34.13,34.13,0,0,0,6,8A5.81,5.81,0,0,1-212.65,398.39Z" transform="translate(404.65 -269.39)"/><path class="cls-60" d="M-227.65,392.39q-.56-3.74,2-2,2.93,4,6,0l2-3q.48,9.75-9,6.5A2.23,2.23,0,0,1-227.65,392.39Z" transform="translate(404.65 -269.39)"/><path class="cls-61" d="M-253.65,398.39q-11,1.75-9.5-9a26.09,26.09,0,0,1,7.5-4.5,113.83,113.83,0,0,1,15-.5v3a18.63,18.63,0,0,0-6,.5q-4.48,1.67-9,3.5a26.29,26.29,0,0,0,15-2l1,1.5A140,140,0,0,1-253.65,398.39Z" transform="translate(404.65 -269.39)"/><path class="cls-62" d="M-225.65,390.39v-5q6.66-1.61,6,5Q-222.72,394.37-225.65,390.39Z" transform="translate(404.65 -269.39)"/><path class="cls-63" d="M50.35,389.39q-5.35-.39-4-6Q55.29,382.31,50.35,389.39Z" transform="translate(404.65 -269.39)"/><path class="cls-64" d="M-300.65,389.39q-5.72-.22-5-6h6A12.1,12.1,0,0,1-300.65,389.39Z" transform="translate(404.65 -269.39)"/><path class="cls-65" d="M-227.65,392.39a.88.88,0,0,1-1-1q-1.29-9.47,8-8a7,7,0,0,1,3,4l-2,3q.66-6.61-6-5v5Q-228.2,388.65-227.65,392.39Z" transform="translate(404.65 -269.39)"/><path class="cls-66" d="M-228.65,391.39a3.23,3.23,0,0,1-2-3,5.08,5.08,0,0,1,2-3.5,50.7,50.7,0,0,0-10-.5,55.57,55.57,0,0,0,15-4,5.52,5.52,0,0,1,3,3Q-229.93,381.92-228.65,391.39Z" transform="translate(404.65 -269.39)"/><path class="cls-67" d="M-78.65,384.39h-2a2.87,2.87,0,0,0-1,3,49.77,49.77,0,0,1-10,16.5,77.36,77.36,0,0,1-14,6.5,11.41,11.41,0,0,1-6-2,7.06,7.06,0,0,1-3-2,1.77,1.77,0,0,1,2-2,24.06,24.06,0,0,0,15-.5q21-15.28,10.5-39.5a26,26,0,0,0-7.5-9.5q-6.41-4.06-12.5-8.5a83.19,83.19,0,0,0-19.5,21q-8.64-10.77-18-21c-1.79-1.32-3.45-1-5,1a1.83,1.83,0,0,1-1-2,51.06,51.06,0,0,0,20-19,10.61,10.61,0,0,1-3,8c.36.68.7,1.35,1,2a2.87,2.87,0,0,0-3,1,55,55,0,0,1-6,6.5,109.44,109.44,0,0,0,15,15.5,109.94,109.94,0,0,0,15-15.5,31,31,0,0,1-6-7,2.65,2.65,0,0,0-3,.5h-1q2.85-2.14,1-5v-2a54.86,54.86,0,0,0,11,10.5,216.78,216.78,0,0,1,23,15.5,203.7,203.7,0,0,1,16.5-25,32,32,0,0,0,3.5-9q1-6,2-12v14c-.33.67-.67,1.33-1,2a11.2,11.2,0,0,1-2,7,10.1,10.1,0,0,0,1,3q9.75,3.63,19,8a13,13,0,0,1,.5-5,76,76,0,0,0,6.5-16q-4-1.42-8-3a2.87,2.87,0,0,0-3-1,47.46,47.46,0,0,1-11-12,5.75,5.75,0,0,1-1-3,61.74,61.74,0,0,0,14,12.5,27.68,27.68,0,0,0,11,3.5,38.92,38.92,0,0,0,10,2,36.53,36.53,0,0,1,16,3q1.77-14.67,4.5-29a67.2,67.2,0,0,0-.5-17,39.1,39.1,0,0,1,4,8,19.09,19.09,0,0,0,12,0,19.23,19.23,0,0,1-12,2v10a121.3,121.3,0,0,0,22,1v-4a3.34,3.34,0,0,1,1.5,2,5.5,5.5,0,0,1,1.5-3,11.38,11.38,0,0,0,2,5,7.14,7.14,0,0,1-1,5,191.41,191.41,0,0,0-27-1q-8.61,21.69,6,39.5,11.34,11,27,8,18.69-8.16,11.5-27.5a24.64,24.64,0,0,0-9.5-9,2.23,2.23,0,0,0-1-1.5,6.29,6.29,0,0,0,5-.5q4.8,8.78,15,9a13.09,13.09,0,0,0,13-2,20,20,0,0,0,9-14,20.81,20.81,0,0,0,1-9q4.65,11.6-3,22a3.08,3.08,0,0,0,3,1,11.87,11.87,0,0,1-4,2.5,2.86,2.86,0,0,0-1,2.5,8.39,8.39,0,0,1-.5,4,18.24,18.24,0,0,0-1.5-6q-10.89,5.78-22,0c-.33.67-.67,1.33-1,2a35.49,35.49,0,0,1,2,15,20.94,20.94,0,0,0-3,7h5a9.06,9.06,0,0,0-5,3l-2,2a1.83,1.83,0,0,0-1-2,19.32,19.32,0,0,1-7,4.5,30.36,30.36,0,0,1-25.5-5.5,49,49,0,0,0,7.5,12.5q7.07,1.91,12-3,8.25-1.75,6.5,6.5c-2,2.11-4.18,2.44-6.5,1a1.77,1.77,0,0,1-2-2,9.88,9.88,0,0,0-4.5-1,5.7,5.7,0,0,0-4.5,2,12.05,12.05,0,0,0-4,7q4.31,12.94-7.5,7-1.65-7.36,6-8a69.4,69.4,0,0,0,2.5-7.5,69.61,69.61,0,0,0-7.5-12.5q3.68,18.89-11.5,30.5a31.06,31.06,0,0,1,22.5,7.5q2.07,6.66-3.5,10.5c-3.68.11-7.34.11-11,0a14.8,14.8,0,0,1,3,3.5l-5-2-3-2c.68-1.67,2-2.34,4-2q12.39,4.82,11.5-8a9.23,9.23,0,0,0-7.5-4.5,113.83,113.83,0,0,0-15-.5v3a74.21,74.21,0,0,1,14,2.5q1.86,2.24-1.5,2.5-6.75-1.62-13.5-3a54.24,54.24,0,0,0-4,6.5,5,5,0,0,1-3,.5v3a2.87,2.87,0,0,0-3,1q3.7,9.17,7,18.5a1.25,1.25,0,0,1-2,0,72.39,72.39,0,0,1-7-16.5l-7-2a11.26,11.26,0,0,0,5-2,21,21,0,0,0,14-14q-13.63.47-22-10-1,7.07-2.5,14a15.5,15.5,0,0,1-6.5,8,15.5,15.5,0,0,0,7,3,1.62,1.62,0,0,0,2,1l-2,2a5.5,5.5,0,0,0-1.5,3,14.68,14.68,0,0,0-1.5-5,1.11,1.11,0,0,0-1,1l-8,12a2,2,0,0,1-.5-3,107.89,107.89,0,0,0,6.5-12,19.39,19.39,0,0,0-9.5,7,46.16,46.16,0,0,0-5.5,10.5q3.65,10.91,12,3a29.35,29.35,0,0,1,3-4.5,6.93,6.93,0,0,1-1,4q-6.49,12-16.5,3,.91-14,12.5-22.5-17.37,3.33-28.5-10.5A10.15,10.15,0,0,1-78.65,384.39Z" transform="translate(404.65 -269.39)"/><path class="cls-68" d="M-1.65,397.39a33.22,33.22,0,0,0-12-5v-3q6.75,1.38,13.5,3,3.36-.27,1.5-2.5a74.21,74.21,0,0,0-14-2.5v-3a113.83,113.83,0,0,1,15,.5,9.23,9.23,0,0,1,7.5,4.5Q10.75,402.2-1.65,397.39Z" transform="translate(404.65 -269.39)"/><path class="cls-69" d="M-78.65,384.39a42.59,42.59,0,0,0-3.5-8,110,110,0,0,1,0-21q5.27-7.54,10.5-15a51.73,51.73,0,0,0,7,3,14.09,14.09,0,0,0-7,3v1q-5.13,7.14,4,8a6.3,6.3,0,0,0,5-2,20.26,20.26,0,0,1,3-7.5q4.35,1,9,2.5a3,3,0,0,1,2,2q2.17,2-1,2.5,6.88.48,1,2.5-22.88-2.86-18.5,20a34.39,34.39,0,0,0,6.5,7.5q15.17,4.1,13-11.5a9,9,0,0,0-6-6q-9.75-.48-6.5,9,4.76,4.33,6.5-2a5,5,0,0,0-1-2.5,10.28,10.28,0,0,1-4-1.5,1.1,1.1,0,0,1,1-1q9.28-1.47,8,8-.65,6.11-7,6-13.49-4.49-8.5-18,7.91-10.09,18.5-3,11.48,8.64,7.5,23-10.93,18.89-30.5,8.5A99.89,99.89,0,0,1-78.65,384.39Z" transform="translate(404.65 -269.39)"/><path class="cls-70" d="M-37.65,399.39a15.5,15.5,0,0,1-7-3,15.5,15.5,0,0,0,6.5-8q1.47-6.93,2.5-14,8.37,10.47,22,10a21,21,0,0,1-14,14A76.12,76.12,0,0,1-37.65,399.39Z" transform="translate(404.65 -269.39)"/><path class="cls-71" d="M-33.65,390.39l-2-3a3.93,3.93,0,0,1,2-3.5,8.8,8.8,0,0,1,7,.5,1.62,1.62,0,0,0-2,1Q-34.65,384.39-33.65,390.39Z" transform="translate(404.65 -269.39)"/><path class="cls-72" d="M-33.65,390.39q-1-6,5-5Q-25,394.72-33.65,390.39Z" transform="translate(404.65 -269.39)"/><path class="cls-73" d="M-35.65,387.39l2,3q8.59,4.33,5-5a1.62,1.62,0,0,1,2-1,7,7,0,0,1,2,5.5,5.93,5.93,0,0,1-2,4Q-36.13,397.15-35.65,387.39Z" transform="translate(404.65 -269.39)"/><path class="cls-74" d="M-32.65,400.39h-3a1.62,1.62,0,0,1-2-1,76.12,76.12,0,0,0,10-1A11.26,11.26,0,0,1-32.65,400.39Z" transform="translate(404.65 -269.39)"/><path class="cls-75" d="M-62.65,409.39q-7.49-.75-3-6.5a2.75,2.75,0,0,1,3.5.5A7.42,7.42,0,0,1-62.65,409.39Z" transform="translate(404.65 -269.39)"/><path class="cls-76" d="M-41.65,401.39a6.89,6.89,0,0,1,1,5,12.23,12.23,0,0,0-3,8,29.35,29.35,0,0,0-3,4.5q-8.35,7.91-12-3a46.16,46.16,0,0,1,5.5-10.5,19.39,19.39,0,0,1,9.5-7,107.89,107.89,0,0,1-6.5,12,2,2,0,0,0,.5,3Z" transform="translate(404.65 -269.39)"/><path class="cls-77" d="M-166.65,392.39a9.56,9.56,0,0,1-2.5-5,20.93,20.93,0,0,1,.5-11A46.84,46.84,0,0,0-166.65,392.39Z" transform="translate(404.65 -269.39)"/><path class="cls-78" d="M-23.65,379.39a39.39,39.39,0,0,0,11-1,2.23,2.23,0,0,1-1,1.5A17.35,17.35,0,0,1-23.65,379.39Z" transform="translate(404.65 -269.39)"/><path class="cls-79" d="M-212.65,385.39a5.83,5.83,0,0,1-2-4v-2A7.13,7.13,0,0,1-212.65,385.39Z" transform="translate(404.65 -269.39)"/><path class="cls-80" d="M-48.65,355.39a10.21,10.21,0,0,0,3,3q-3.3-.13-1,2-10.59-7.09-18.5,3-5,13.51,8.5,18,6.36.11,7-6c.67-1.33,1.33-2.67,2-4q2.16,15.58-13,11.5a34.39,34.39,0,0,1-6.5-7.5Q-71.53,352.53-48.65,355.39Z" transform="translate(404.65 -269.39)"/><path class="cls-81" d="M22.35,377.39a4.24,4.24,0,0,1-2-1.5,50.7,50.7,0,0,1,10-.5Z" transform="translate(404.65 -269.39)"/><path class="cls-82" d="M8.35,379.39a12.81,12.81,0,0,1-5-.5q-2.23-4.56,3-5.5Q10.66,375.33,8.35,379.39Z" transform="translate(404.65 -269.39)"/><path class="cls-83" d="M-23.65,379.39q-11.88-3.18-15-15v-8q3-12.76,16-10.5,10.09,5.3,7.5,16.5-6.85,8-14,0-2.75-8.22,5.5-7.5a7.25,7.25,0,0,0-2,6.5q9.42.06,4-8-12.54-1.67-8.5,11,7.24,8.53,16,2,5.36-15.54-9.5-22.5a16.6,16.6,0,0,0-11,1.5,9.75,9.75,0,0,0-6,8,4.26,4.26,0,0,0-2.5,3,11.48,11.48,0,0,0-1.5-3.5,44.51,44.51,0,0,0,2-12.5,77.17,77.17,0,0,0,6-16q25.33,0,35.5,23,6.44,18.36-8.5,30.5a5,5,0,0,1-3,.5A39.39,39.39,0,0,1-23.65,379.39Z" transform="translate(404.65 -269.39)"/><path class="cls-84" d="M-274.65,377.39a2.23,2.23,0,0,1,1-1.5,50.7,50.7,0,0,0-10-.5,49.45,49.45,0,0,1,10-1.5l2-3a6.87,6.87,0,0,1-3-1.5,9.71,9.71,0,0,0,7-4h1a9.34,9.34,0,0,0,0,8l-.5,1q-3.32-4.22-4.5,1a23.92,23.92,0,0,0,3,8.5c-.83.69-1.5.52-2-.5A12.06,12.06,0,0,0-274.65,377.39Z" transform="translate(404.65 -269.39)"/><path class="cls-85" d="M-53.65,365.39l-4,2a1.1,1.1,0,0,0-1,1,10.28,10.28,0,0,0,4,1.5,5,5,0,0,1,1,2.5q-1.74,6.33-6.5,2Q-63.39,364.91-53.65,365.39Z" transform="translate(404.65 -269.39)"/><path class="cls-86" d="M-112.65,404.39a69.74,69.74,0,0,1-8.5-6,41,41,0,0,1-3.5-8,27.44,27.44,0,0,1,2-14q5.3-10.15,16-7,1.47,2,3,4c-2.11,1.35-3.95,1-5.5-1q-3.15,1.83.5,2.5-6.9-.83-9.5,5.5a6.59,6.59,0,0,0,.5,6,2.72,2.72,0,0,0,2,3q7.88,10,16,0,5.3-13.54-6-22.5-13.75-3.45-19,9.5a5.75,5.75,0,0,1-3,1,20.22,20.22,0,0,0-10-11,17,17,0,0,0-12,.5,3.93,3.93,0,0,0-2,3.5q-6.39,8-2.5,18,8,11.07,16.5,1a4.44,4.44,0,0,0,2-4.5,4.44,4.44,0,0,0-2-4.5v7a19.72,19.72,0,0,0-4,3.5q-17.32.19-10.5-16.5,10.54-11.86,21,0,10,20.53-10.5,30.5-16.69,1.88-25-12.5a46.84,46.84,0,0,1-2-16,26,26,0,0,1,5.5-17,82.39,82.39,0,0,1,18.5-13q9.36,10.23,18,21a83.19,83.19,0,0,1,19.5-21q6.09,4.42,12.5,8.5a26,26,0,0,1,7.5,9.5q10.47,24.21-10.5,39.5A24.06,24.06,0,0,1-112.65,404.39Z" transform="translate(404.65 -269.39)"/><path class="cls-87" d="M-124.65,390.39a71.66,71.66,0,0,0-3-13,5.75,5.75,0,0,0,3-1h2A27.44,27.44,0,0,0-124.65,390.39Z" transform="translate(404.65 -269.39)"/><path class="cls-88" d="M-143.65,385.39v-5a6.85,6.85,0,0,1-4-1q2.85-4.14,8-2.5a3.93,3.93,0,0,1,2,3.5,6.75,6.75,0,0,0-7-1.5Q-141.39,381.85-143.65,385.39Z" transform="translate(404.65 -269.39)"/><path class="cls-89" d="M-143.65,385.39q-7.12.24-4-6a6.85,6.85,0,0,0,4,1Z" transform="translate(404.65 -269.39)"/><path class="cls-90" d="M-137.65,389.39v-9a4.44,4.44,0,0,1,2,4.5A4.44,4.44,0,0,1-137.65,389.39Z" transform="translate(404.65 -269.39)"/><path class="cls-91" d="M-115.65,389.39a2.72,2.72,0,0,1-2-3,5.92,5.92,0,0,1,2-6v9Z" transform="translate(404.65 -269.39)"/><path class="cls-92" d="M-115.65,387.39v-7a5.92,5.92,0,0,0-2,6,6.59,6.59,0,0,1-.5-6q2.59-6.33,9.5-5.5-3.64-.67-.5-2.5c1.55,2,3.39,2.35,5.5,1q-1.53-2-3-4a3.93,3.93,0,0,1,3.5,2q7.7,10.59-1.5,19.5Q-111.46,392.9-115.65,387.39Z" transform="translate(404.65 -269.39)"/><path class="cls-93" d="M-115.65,380.39q2-5.62,8-3.5a8.44,8.44,0,0,1,3,8.5h-6c-.65-3.05.35-5.21,3-6.5a3.93,3.93,0,0,0-3-1.5A11.92,11.92,0,0,0-115.65,380.39Z" transform="translate(404.65 -269.39)"/><path class="cls-94" d="M-128.65,397.39q1.19-8.79,4-1Q-127.2,394.41-128.65,397.39Z" transform="translate(404.65 -269.39)"/><path class="cls-95" d="M38.35,352.39l2-2a2.23,2.23,0,0,0,1.5-1q0,8.07.5,16a3.58,3.58,0,0,0,1.5-1q1.13-7.47,1.5-15h3a179.77,179.77,0,0,1-.5,19q-4.56,8.72-12,2a20.4,20.4,0,0,1,0-9A30.3,30.3,0,0,0,38.35,352.39Z" transform="translate(404.65 -269.39)"/><path class="cls-96" d="M-115.65,389.39v-2q4.19,5.5,11,3.5,9.2-8.91,1.5-19.5a3.93,3.93,0,0,0-3.5-2q-10.71-3.15-16,7h-2q5.24-12.94,19-9.5,11.3,9,6,22.5Q-107.78,399.37-115.65,389.39Z" transform="translate(404.65 -269.39)"/><path class="cls-97" d="M33.35,371.39a33.24,33.24,0,0,1,5-19,30.3,30.3,0,0,1-2.5,9,20.4,20.4,0,0,0,0,9q7.44,6.71,12-2a179.77,179.77,0,0,0,.5-19h-3q-.37,7.53-1.5,15a3.58,3.58,0,0,1-1.5,1q-.54-7.92-.5-16a2.23,2.23,0,0,1-1.5,1,9.06,9.06,0,0,1,5-3,18.36,18.36,0,0,0,6-.5,2.23,2.23,0,0,0,1-1.5q14.3-6.33,12-22a18.24,18.24,0,0,1,1.5,6,8.39,8.39,0,0,0,.5-4,38.53,38.53,0,0,0,13-2l3,1a3.58,3.58,0,0,1-1,1.5q-6.48,1.14-13,2c-1.32,1.4-1,2.4,1,3a50.71,50.71,0,0,0,18-1q8-6.54-1-12a18.63,18.63,0,0,0-6-.5,17.35,17.35,0,0,1,10-.5q6,3.53,4.5,10.5a36.66,36.66,0,0,1-12.5,5.5,31.78,31.78,0,0,1,16.5,9.5q1.94,6.19-3.5,9.5a43,43,0,0,1-15-1,24.73,24.73,0,0,1,8,13.5q-2.11,7.82-10,5.5a46.06,46.06,0,0,1-9.5-6.5q.48,5.66,1.5,11.5-5,13.31-14.5,2.5a44.41,44.41,0,0,1-5.5-12,35.11,35.11,0,0,1-5,11.5Q36.49,379.83,33.35,371.39Z" transform="translate(404.65 -269.39)"/><path class="cls-98" d="M64.35,377.39a9.94,9.94,0,0,1-8.5-5,49.06,49.06,0,0,1-4.5-23q4.71,8.91,8.5,18a6.47,6.47,0,0,0,0-5,22.85,22.85,0,0,1-3.5-15,94,94,0,0,1,10.5,17A14.35,14.35,0,0,1,64.35,377.39Z" transform="translate(404.65 -269.39)"/><path class="cls-99" d="M-49.65,375.39q1.29-9.47-8-8l4-2a9,9,0,0,1,6,6C-48.32,372.72-49,374.06-49.65,375.39Z" transform="translate(404.65 -269.39)"/><path class="cls-100" d="M-151.65,370.39a3.93,3.93,0,0,1,2-3.5,17,17,0,0,1,12-.5A16.87,16.87,0,0,0-151.65,370.39Z" transform="translate(404.65 -269.39)"/><path class="cls-101" d="M24.35,366.39q-3.12-7.39,5-6Q31,367,24.35,366.39Z" transform="translate(404.65 -269.39)"/><path class="cls-102" d="M14.35,365.39h-1a5.7,5.7,0,0,1,4.5-2,9.88,9.88,0,0,1,4.5,1A16.72,16.72,0,0,0,14.35,365.39Z" transform="translate(404.65 -269.39)"/><path class="cls-103" d="M-143.65,363.39q-12.93.17-6-10,6.93-2.59,8,5A16.43,16.43,0,0,1-143.65,363.39Z" transform="translate(404.65 -269.39)"/><path class="cls-104" d="M-103.65,363.39q-12.25-.61-5-10.5,4.94-1.11,7.5,3.5a4.23,4.23,0,0,1,0,4A10.32,10.32,0,0,0-103.65,363.39Z" transform="translate(404.65 -269.39)"/><path class="cls-105" d="M-104.65,360.39q-7,.74-4-5.5Q-101.49,353.67-104.65,360.39Z" transform="translate(404.65 -269.39)"/><path class="cls-106" d="M-38.65,364.39a7.06,7.06,0,0,1-3-2,20.81,20.81,0,0,0,1-9,9.75,9.75,0,0,1,6-8,40.5,40.5,0,0,0-4.5,6,4.73,4.73,0,0,0,.5,5Z" transform="translate(404.65 -269.39)"/><path class="cls-107" d="M-41.65,362.39a11.44,11.44,0,0,0-4-4,10.21,10.21,0,0,1-3-3q5.9-2-1-2.5,3.18-.51,1-2.5a5.58,5.58,0,0,1,3,1,69.59,69.59,0,0,1,3-11,44.51,44.51,0,0,1-2,12.5,11.48,11.48,0,0,1,1.5,3.5,4.26,4.26,0,0,1,2.5-3A20.81,20.81,0,0,1-41.65,362.39Z" transform="translate(404.65 -269.39)"/><path class="cls-108" d="M-144.65,360.39q-6.61.66-5-6Q-141.5,353-144.65,360.39Z" transform="translate(404.65 -269.39)"/><path class="cls-109" d="M81.35,366.39a13,13,0,0,1-10-3.5,119.62,119.62,0,0,1-11.5-14.5,2,2,0,0,1,.5-3q6.23,5.48,12,11.5a2.49,2.49,0,0,0,3,0q-6.22-7.47-13-14.5a2,2,0,0,1,3-.5,139.61,139.61,0,0,1,15.5,12.5Q87.15,360.42,81.35,366.39Z" transform="translate(404.65 -269.39)"/><path class="cls-110" d="M-38.65,356.39a4.73,4.73,0,0,1-.5-5,40.5,40.5,0,0,1,4.5-6,16.6,16.6,0,0,1,11-1.5q14.85,7,9.5,22.5-8.76,6.54-16-2-4-12.67,8.5-11,5.41,8.07-4,8a7.25,7.25,0,0,1,2-6.5q-8.24-.72-5.5,7.5,7.14,8,14,0,2.6-11.2-7.5-16.5Q-35.62,343.63-38.65,356.39Z" transform="translate(404.65 -269.39)"/><path class="cls-111" d="M-71.65,347.39v-1q9.18-2.83,9,7a6.3,6.3,0,0,1-5,2Q-76.78,354.52-71.65,347.39Z" transform="translate(404.65 -269.39)"/><path class="cls-112" d="M-352.65,342.39a35.86,35.86,0,0,1,17-9.5,36.66,36.66,0,0,1-12.5-5.5q-2-11.26,9.5-11a34.82,34.82,0,0,1,16,4l1-1q-9.47-13.23-1-27-.42,5.75-1,11.5a11.13,11.13,0,0,0,2,7.5,16.63,16.63,0,0,0,9,10v3h-3a2.87,2.87,0,0,0-3-1v7a6.88,6.88,0,0,1-1-5,2.86,2.86,0,0,0-1-2.5,25.9,25.9,0,0,0-20-4q-7.87,5.25,0,10.5a9.83,9.83,0,0,0,6,1,95.1,95.1,0,0,0,14,1.5,18.24,18.24,0,0,0-6,1.5,80.26,80.26,0,0,0-19,6.5q-5.76,9.63,5.5,10.5a52.43,52.43,0,0,0,20.5-9.5,4.38,4.38,0,0,0,1-3.5,42.11,42.11,0,0,0-14,5.5,4.7,4.7,0,0,1-5-.5,39.58,39.58,0,0,1,17-7l2-3h1a24.69,24.69,0,0,0,12,13,2.23,2.23,0,0,0,1,1.5,17.35,17.35,0,0,0,10-.5,30.09,30.09,0,0,1-1-18q1,5.5,2,11,9.19,16.5,28,12.5a33.75,33.75,0,0,0,20-21.5q1.13,5.53,4,0a4.86,4.86,0,0,1,4-1,49,49,0,0,0-15,18,91.21,91.21,0,0,0-3,19,50,50,0,0,1-.5-15,69.61,69.61,0,0,0-7.5,12.5q.67,6.94,7,9a2.86,2.86,0,0,1,1,2.5q2,7.28-6,5.5a4.38,4.38,0,0,1-2-4q2.55-7-3-11.5a5.7,5.7,0,0,0-4.5-2,9.88,9.88,0,0,0-4.5,1q-2.94,4.59-8,2-3.32-8.92,6-7.5,4.93,4.91,12,3a49.54,49.54,0,0,0,7.5-12.5,26.09,26.09,0,0,1-23.5,5.5,17.75,17.75,0,0,1-9-4.5,1.83,1.83,0,0,0-1,2,30.24,30.24,0,0,1,4.5,21q-4.44,5.67-11.5,3.5a49.42,49.42,0,0,1-5-11.5,39.18,39.18,0,0,1-5.5,12q-6.27,9.45-14,1-.32-7.14-.5-14a54.47,54.47,0,0,1-7,5.5q-11.18,2.81-10.5-8.5a58,58,0,0,1,7.5-10.5,43,43,0,0,1-15,1Q-353.84,348.67-352.65,342.39Z" transform="translate(404.65 -269.39)"/><path class="cls-113" d="M-313.65,377.39a6,6,0,0,1-6.5-3,25.13,25.13,0,0,1,0-10,91,91,0,0,1,10.5-17,27.58,27.58,0,0,1-3.5,15,6.47,6.47,0,0,0,0,5,44.64,44.64,0,0,0,7-17,3.58,3.58,0,0,1,1.5-1,49,49,0,0,1-4.5,23A11.7,11.7,0,0,1-313.65,377.39Z" transform="translate(404.65 -269.39)"/><path class="cls-113" d="M-328.65,366.39q-8.76,1.47-8.5-7a54.15,54.15,0,0,1,20.5-18c1,.5,1.19,1.17.5,2q-6.53,6.27-12.5,13a2,2,0,0,0,3,.5l11-11c1-.59,1.65-.26,2,1A63,63,0,0,1-328.65,366.39Z" transform="translate(404.65 -269.39)"/><path class="cls-114" d="M-278.65,366.39q-7.49-.75-3-6.5Q-274,360.16-278.65,366.39Z" transform="translate(404.65 -269.39)"/><path class="cls-115" d="M-266.65,365.39h-1a16.73,16.73,0,0,0-8-1,9.88,9.88,0,0,1,4.5-1A5.7,5.7,0,0,1-266.65,365.39Z" transform="translate(404.65 -269.39)"/><path class="cls-116" d="M-291.65,352.39a13.41,13.41,0,0,0,2.5,9q4.08,12.39-8.5,11.5a11.42,11.42,0,0,1-3.5-4.5,54.66,54.66,0,0,1,.5-18,3.58,3.58,0,0,1,1.5,1,62.56,62.56,0,0,0,3.5,14q.54-7.92.5-16A5.4,5.4,0,0,0-291.65,352.39Z" transform="translate(404.65 -269.39)"/><path class="cls-117" d="M-276.65,378.39a14.87,14.87,0,0,0-7-3,50.7,50.7,0,0,1,10,.5,2.23,2.23,0,0,0-1,1.5Z" transform="translate(404.65 -269.39)"/><path class="cls-118" d="M-255.65,375.39q-.75,7.49-6.5,3Q-262.2,370.44-255.65,375.39Z" transform="translate(404.65 -269.39)"/><path class="cls-119" d="M-71.65,347.39q7.37-2.85,6,4.5a18.36,18.36,0,0,1-6,.5Z" transform="translate(404.65 -269.39)"/><path class="cls-120" d="M-212.65,385.39a7.13,7.13,0,0,0-2-6q-2.57-16.18,13-21.5,10.68-2.79,14.5,7.5,2.29,10.16-6.5,15.5-12.32.67-9.5-11.5a7.34,7.34,0,0,1,8.5-1q-6.07.32-4.5,6,6.27,4.49,6.5-3.5a5.75,5.75,0,0,0-2-5q-10.83-2.17-11,9a7.7,7.7,0,0,0,3,7.5,2.23,2.23,0,0,0,1,1.5,16.17,16.17,0,0,0,8,0,2.23,2.23,0,0,0,1-1.5q10-6.79,6.5-19-5.07-11.55-17.5-7.5a20.36,20.36,0,0,0-8.5,6.5,22.73,22.73,0,0,0-8.5-18.5q-14.34-3.19-19.5,10.5-2.32,8.69,4.5,14a11.28,11.28,0,0,0,8,.5,2.23,2.23,0,0,0,1-1.5,14.8,14.8,0,0,0,3.5-3,20.4,20.4,0,0,0,0-9q-7-6.42-10.5,2.5c.27,3.17,1.93,4.17,5,3q2.15-3.4-1-6,8.24-.72,5.5,7.5a10.32,10.32,0,0,0-2.5,3,21.46,21.46,0,0,1-7,1,17.33,17.33,0,0,1-4.5-3q-2.44-19,16.5-17.5,11,11.12,4.5,25.5-16.5,16-33,0a34.92,34.92,0,0,1-2.5-24,49,49,0,0,1,15-18,38.46,38.46,0,0,1,21-3,125.91,125.91,0,0,1,6.5,14q1.18,5.52,2.5,11,8.35-4.92,17-9c3.07-1,6.07-1.85,9-2.5q5.07,7.88,10.5,15.5,5.93,22.19-11.5,36a8.92,8.92,0,0,0-6,3Q-204.13,398.74-212.65,385.39Z" transform="translate(404.65 -269.39)"/><path class="cls-121" d="M-181.65,347.39q3.33,12.27-8.5,6-1.24-8.75,7.5-7.5A2.23,2.23,0,0,1-181.65,347.39Z" transform="translate(404.65 -269.39)"/><path class="cls-122" d="M-181.65,347.39q0,8.28-6.5,4Q-188.31,344.34-181.65,347.39Z" transform="translate(404.65 -269.39)"/><path class="cls-123" d="M-202.65,382.39a13,13,0,0,0,10,0,2.23,2.23,0,0,1-1,1.5,16.17,16.17,0,0,1-8,0A2.23,2.23,0,0,1-202.65,382.39Z" transform="translate(404.65 -269.39)"/><path class="cls-124" d="M-214.65,388.39a27.32,27.32,0,0,1-3.5-13,38.59,38.59,0,0,1-5.5,5,55.57,55.57,0,0,1-15,4v3a4.62,4.62,0,0,1-1-4h-11a18.24,18.24,0,0,1,6-1.5,28.85,28.85,0,0,1-11-15.5,91.21,91.21,0,0,1,3-19,34.92,34.92,0,0,0,2.5,24q16.5,16,33,0,6.51-14.38-4.5-25.5-18.94-1.54-16.5,17.5a17.33,17.33,0,0,0,4.5,3,13.12,13.12,0,0,0,5,1.5,24.93,24.93,0,0,1-7,.5q-6.82-5.31-4.5-14,5.16-13.69,19.5-10.5a22.73,22.73,0,0,1,8.5,18.5,20.36,20.36,0,0,1,8.5-6.5q12.43-4,17.5,7.5,3.51,12.21-6.5,19a13,13,0,0,1-10,0,7.7,7.7,0,0,1-3-7.5q.17-11.17,11-9a5.75,5.75,0,0,1,2,5q-.24,8-6.5,3.5-1.57-5.68,4.5-6a7.34,7.34,0,0,0-8.5,1q-2.82,12.18,9.5,11.5,8.79-5.34,6.5-15.5-3.82-10.29-14.5-7.5-15.57,5.31-13,21.5v2A13.81,13.81,0,0,0-214.65,388.39Z" transform="translate(404.65 -269.39)"/><path class="cls-125" d="M-226.65,367.39c-1-.44-1-1.1,0-2a10.32,10.32,0,0,1,2.5-3q2.73-8.22-5.5-7.5,3.15,2.6,1,6c-3.07,1.17-4.73.17-5-3q3.47-8.92,10.5-2.5a20.4,20.4,0,0,1,0,9A14.8,14.8,0,0,1-226.65,367.39Z" transform="translate(404.65 -269.39)"/><path class="cls-126" d="M-235.65,368.39a24.93,24.93,0,0,0,7-.5,13.12,13.12,0,0,1-5-1.5,21.46,21.46,0,0,0,7-1c-1,.9-1,1.56,0,2a2.23,2.23,0,0,1-1,1.5A11.28,11.28,0,0,1-235.65,368.39Z" transform="translate(404.65 -269.39)"/><path class="cls-16" d="M90.35,350.39a47.75,47.75,0,0,1-24-10,3.08,3.08,0,0,1-1-3,77.39,77.39,0,0,1,17.5,6c1.83-.51,2-1.34.5-2.5a92.74,92.74,0,0,1-16-7.5l2-1q10.19,2.28,20,5.5Q98.51,343.85,90.35,350.39Z" transform="translate(404.65 -269.39)"/><path class="cls-127" d="M-294.65,346.39a17.35,17.35,0,0,1-10,.5,2.23,2.23,0,0,1-1-1.5A39.39,39.39,0,0,0-294.65,346.39Z" transform="translate(404.65 -269.39)"/><path class="cls-128" d="M-326.65,333.39a5.74,5.74,0,0,1,6,2,39.58,39.58,0,0,0-17,7,4.7,4.7,0,0,0,5,.5,42.11,42.11,0,0,1,14-5.5,4.38,4.38,0,0,1-1,3.5,52.43,52.43,0,0,1-20.5,9.5q-11.27-.87-5.5-10.5A80.26,80.26,0,0,1-326.65,333.39Z" transform="translate(404.65 -269.39)"/><path class="cls-129" d="M-237.65,329.39a4.86,4.86,0,0,0-4,1q-2.88,5.53-4,0a40.15,40.15,0,0,0-1-20,51.52,51.52,0,0,0-1-7,101,101,0,0,0-20,1,63.65,63.65,0,0,1-9,.5,15.1,15.1,0,0,0,1.5-4.5q.75-12,.5-24-7-.81-14-2a7.87,7.87,0,0,0-6-2,23.43,23.43,0,0,0-8,2v-5h9a3.31,3.31,0,0,0,2,1.5,32,32,0,0,0,8,.5,82.69,82.69,0,0,0,15,3,81.88,81.88,0,0,0,13,1.5,3.31,3.31,0,0,0-2,1.5h-1a36.61,36.61,0,0,0-12,1,61.77,61.77,0,0,0,2,22h20v-13a.88.88,0,0,0,1-1q1,6,2,12a120.6,120.6,0,0,1,5,27,80.78,80.78,0,0,1,23-4,26.13,26.13,0,0,0,15-6q25-13.47,8.5-37a40.48,40.48,0,0,1-.5-9h2a35.49,35.49,0,0,0,3.5,12q3.26,6.08,6.5,12a96,96,0,0,1,18-7.5,84.39,84.39,0,0,0,10-7.5v2a10.75,10.75,0,0,1-4,5.5q-12.21,5.36-24,11.5a19.42,19.42,0,0,0-4,9c-1.76-1.45-3.1-1.12-4,1a24.1,24.1,0,0,1-10,10,22.59,22.59,0,0,1-4,3l-5,2a3.5,3.5,0,0,0-4,2q3.17,5.6,6,11a57.38,57.38,0,0,1,2,9q7.88-3.28,16-6a3.11,3.11,0,0,1,3,1,6.63,6.63,0,0,0-4,3q-8.65,4.08-17,9-1.32-5.47-2.5-11a125.91,125.91,0,0,0-6.5-14A38.46,38.46,0,0,0-237.65,329.39Z" transform="translate(404.65 -269.39)"/><path class="cls-130" d="M-62.65,353.39q.18-9.83-9-7a14.09,14.09,0,0,1,7-3,51.73,51.73,0,0,1-7-3,3.2,3.2,0,0,1,4-.5,105,105,0,0,1,17,8.5q-4.65-1.47-9-2.5A20.26,20.26,0,0,0-62.65,353.39Z" transform="translate(404.65 -269.39)"/><path class="cls-131" d="M-135.65,337.39a8.87,8.87,0,0,1,7,8q6.41-1.39,8-8a2.65,2.65,0,0,1,3-.5,31,31,0,0,0,6,7,109.94,109.94,0,0,1-15,15.5,109.44,109.44,0,0,1-15-15.5A55,55,0,0,0-135.65,337.39Z" transform="translate(404.65 -269.39)"/><path class="cls-132" d="M-135.65,337.39a2.87,2.87,0,0,1,3-1,25.51,25.51,0,0,1,6,6,26.31,26.31,0,0,1,5-5h1q-1.6,6.6-8,8A8.87,8.87,0,0,0-135.65,337.39Z" transform="translate(404.65 -269.39)"/><path class="cls-133" d="M-294.65,346.39a39.39,39.39,0,0,1-11-1,24.69,24.69,0,0,1-12-13,9.21,9.21,0,0,1,2-8h3a2.23,2.23,0,0,0,1,1.5,23.29,23.29,0,0,0,16-2.5,4,4,0,0,1,0,5A30.09,30.09,0,0,0-294.65,346.39Z" transform="translate(404.65 -269.39)"/><path class="cls-134" d="M45.35,347.39h-5a20.94,20.94,0,0,1,3-7,5.79,5.79,0,0,1-2,5.5,24.19,24.19,0,0,0,11-.5,2.23,2.23,0,0,1-1,1.5A18.36,18.36,0,0,1,45.35,347.39Z" transform="translate(404.65 -269.39)"/><path class="cls-135" d="M117.35,338.39q5.72-.22,5-6,2.75,5.19-3,7A2.35,2.35,0,0,1,117.35,338.39Z" transform="translate(404.65 -269.39)"/><path class="cls-136" d="M-220.65,340.39q-9.79.39-6.5-9,10.36-6,9,6A11.36,11.36,0,0,1-220.65,340.39Z" transform="translate(404.65 -269.39)"/><path class="cls-137" d="M-27.65,340.39q-8.74.51-7.5-8,11-7.53,9,6A4.29,4.29,0,0,0-27.65,340.39Z" transform="translate(404.65 -269.39)"/><path class="cls-138" d="M-65.65,326.39l13,4q-1.12-6.54,4-10,4,1.58,8,3a76,76,0,0,1-6.5,16,13,13,0,0,0-.5,5q-9.26-4.36-19-8a10.1,10.1,0,0,1-1-3A11.2,11.2,0,0,0-65.65,326.39Z" transform="translate(404.65 -269.39)"/><path class="cls-139" d="M-301.65,330.39q5.61,10.68-7,8.5-5.12-7.62,3.5-10.5A3.22,3.22,0,0,1-301.65,330.39Z" transform="translate(404.65 -269.39)"/><path class="cls-140" d="M117.35,338.39q-4.29-8.22,5-6Q123.07,338.17,117.35,338.39Z" transform="translate(404.65 -269.39)"/><path class="cls-141" d="M-301.65,330.39a18.63,18.63,0,0,1-.5,6q-7.34,2.42-5.5-5A9.91,9.91,0,0,1-301.65,330.39Z" transform="translate(404.65 -269.39)"/><path class="cls-39" d="M-207.65,335.39a31,31,0,0,0-4-11c.74-.68,1.41-1.35,2-2l5-2q5.13,3.45,4,10h4a4.64,4.64,0,0,0,4-4h5q1.62,4.1,3,8.5a12.29,12.29,0,0,1-5,3.5q-8.11,2.72-16,6A57.38,57.38,0,0,0-207.65,335.39Z" transform="translate(404.65 -269.39)"/><path class="cls-142" d="M-28.65,337.39q-7,.74-4-5.5Q-25.49,330.67-28.65,337.39Z" transform="translate(404.65 -269.39)"/><path class="cls-143" d="M132.35,334.39v-2q5.1,1.91,4-4a5.5,5.5,0,0,1,1.5,3,5,5,0,0,0,.5-3Q140.33,335.42,132.35,334.39Z" transform="translate(404.65 -269.39)"/><path class="cls-144" d="M-132.65,336.39c-.3-.65-.64-1.32-1-2a10.61,10.61,0,0,0,3-8,9.06,9.06,0,0,0,3-5h2a16.88,16.88,0,0,0,5,11q1.84,2.85-1,5a26.31,26.31,0,0,0-5,5A25.51,25.51,0,0,0-132.65,336.39Z" transform="translate(404.65 -269.39)"/><path class="cls-145" d="M-220.65,337.39q-6.61.66-5-6h6A12.1,12.1,0,0,1-220.65,337.39Z" transform="translate(404.65 -269.39)"/><path class="cls-146" d="M-320.65,335.39a5.74,5.74,0,0,0-6-2,18.24,18.24,0,0,1,6-1.5,95.1,95.1,0,0,1-14-1.5,49.88,49.88,0,0,0,14-1,72.18,72.18,0,0,0-15-4.5,61.69,61.69,0,0,1,16,.5,6.88,6.88,0,0,0,1,5v2Z" transform="translate(404.65 -269.39)"/><path class="cls-147" d="M132.35,332.39q-2.13-3.5,1.5-6a2.7,2.7,0,0,1,2.5,2Q137.45,334.3,132.35,332.39Z" transform="translate(404.65 -269.39)"/><path class="cls-148" d="M-196.65,330.39v-2a5.83,5.83,0,0,1,4-2A4.64,4.64,0,0,1-196.65,330.39Z" transform="translate(404.65 -269.39)"/><path class="cls-149" d="M-65.65,326.39c.33-.67.67-1.33,1-2h1a22.72,22.72,0,0,1,8,4,38.57,38.57,0,0,0,4-9,2.87,2.87,0,0,1,3,1q-5.13,3.45-4,10Z" transform="translate(404.65 -269.39)"/><path class="cls-150" d="M-334.65,330.39a9.83,9.83,0,0,1-6-1q-7.87-5.25,0-10.5a25.9,25.9,0,0,1,20,4,2.86,2.86,0,0,1,1,2.5,61.69,61.69,0,0,0-16-.5,72.18,72.18,0,0,1,15,4.5A49.88,49.88,0,0,1-334.65,330.39Z" transform="translate(404.65 -269.39)"/><path class="cls-151" d="M-317.65,332.39h-1v-9a2.87,2.87,0,0,1,3,1A9.21,9.21,0,0,0-317.65,332.39Z" transform="translate(404.65 -269.39)"/><path class="cls-152" d="M43.35,340.39a35.49,35.49,0,0,0-2-15c.33-.67.67-1.33,1-2q11.11,5.78,22,0,2.3,15.67-12,22a24.19,24.19,0,0,1-11,.5A5.79,5.79,0,0,0,43.35,340.39Z" transform="translate(404.65 -269.39)"/><path class="cls-153" d="M55.35,339.39q-12,1.77-8-9.5,8.16-4.2,10,4.5A6.29,6.29,0,0,1,55.35,339.39Z" transform="translate(404.65 -269.39)"/><path class="cls-154" d="M53.35,337.39a6.46,6.46,0,0,1-4.5-1,18.36,18.36,0,0,1-.5-6Q57.74,329.73,53.35,337.39Z" transform="translate(404.65 -269.39)"/><path class="cls-155" d="M-207.65,335.39q-2.83-5.4-6-11a3.5,3.5,0,0,1,4-2c-.59.65-1.26,1.32-2,2A31,31,0,0,1-207.65,335.39Z" transform="translate(404.65 -269.39)"/><path class="cls-156" d="M66.35,325.39a2.86,2.86,0,0,1,1-2.5,11.87,11.87,0,0,0,4-2.5,24.07,24.07,0,0,0,9-3,18.63,18.63,0,0,1,6,.5q9,5.46,1,12a50.71,50.71,0,0,1-18,1c-2-.6-2.32-1.6-1-3q6.53-.86,13-2a3.58,3.58,0,0,0,1-1.5l-3-1A38.53,38.53,0,0,1,66.35,325.39Z" transform="translate(404.65 -269.39)"/><path class="cls-157" d="M48.35,322.39a31.72,31.72,0,0,0,13-2A13.09,13.09,0,0,1,48.35,322.39Z" transform="translate(404.65 -269.39)"/><path class="cls-158" d="M-196.65,328.39a2.64,2.64,0,0,1-2.5-2,30.64,30.64,0,0,1-1.5-9,24.1,24.1,0,0,0,10-10,2.87,2.87,0,0,1,1,3,97.67,97.67,0,0,1-.5,14,9.49,9.49,0,0,0-2.5,2A5.83,5.83,0,0,0-196.65,328.39Z" transform="translate(404.65 -269.39)"/><path class="cls-159" d="M-28.65,322.39a38.92,38.92,0,0,1-10-2A16.91,16.91,0,0,1-28.65,322.39Z" transform="translate(404.65 -269.39)"/><path class="cls-160" d="M-63.65,324.39a72.92,72.92,0,0,1,1-17,47.46,47.46,0,0,0,11,12,38.57,38.57,0,0,1-4,9A22.72,22.72,0,0,0-63.65,324.39Z" transform="translate(404.65 -269.39)"/><path class="cls-161" d="M-120.65,330.39q-1.56-5-3.5-10a71.78,71.78,0,0,1-.5-12,201.74,201.74,0,0,1,16-18,8.74,8.74,0,0,0,4-7,4.86,4.86,0,0,1,1-4,3.09,3.09,0,0,1,1,3v6q-4.27,5.48,1,2a1.83,1.83,0,0,1,1,2q-2.61,11.61-14,14a.88.88,0,0,0-1,1q-4.08,4,1,7.5a5.41,5.41,0,0,0,6-1.5q1.13-3.78,2-8a55.29,55.29,0,0,0,6.5-6,18.63,18.63,0,0,1,.5,6c-.3.65-.64,1.32-1,2,.76,1.27,1.42,1.27,2,0q2.4,5.1-2,9c-.3.65-.64,1.32-1,2a26.28,26.28,0,0,1-7,1.5,2.86,2.86,0,0,0-1,2.5q-1.63,8.31,7,5a39.28,39.28,0,0,0,1.5-7,5.62,5.62,0,0,0,3.5-5q4.08,4.39-1,8.5a29.41,29.41,0,0,0,5-.5,12.3,12.3,0,0,1-3,8q1.71,6.74,8,4a6.87,6.87,0,0,0,2-4q-2.61-4.06-5-8a4.86,4.86,0,0,0,4-1,8.65,8.65,0,0,0-5-3q-1.92-2.19,0-4a16.33,16.33,0,0,1,5,2q2,6.71,9,5.5,3.72-3.42.5-7.5a9.12,9.12,0,0,0-5.5-1,10,10,0,0,1-3,1,18.87,18.87,0,0,0-7-2.5,9.05,9.05,0,0,1-1-5.5,3.09,3.09,0,0,0,3-1,1.83,1.83,0,0,0-2-1,2.87,2.87,0,0,0-3-1,9.83,9.83,0,0,1,1-6l8,3a31.22,31.22,0,0,1,3,5q6.48,4.92,9-2.5-1.69-6.6-8-3.5a113.26,113.26,0,0,1-14-5,9.2,9.2,0,0,1-1-5c.59-.65,1.26-1.32,2-2a1.83,1.83,0,0,0-2-1,6,6,0,0,0-2-5,5,5,0,0,1,.5-3,56.66,56.66,0,0,0,9.5,8.5,135.62,135.62,0,0,1,20,9,16.65,16.65,0,0,1,4,8.5v17a32,32,0,0,1-3.5,9,203.7,203.7,0,0,0-16.5,25,216.78,216.78,0,0,0-23-15.5A54.86,54.86,0,0,1-120.65,330.39Z" transform="translate(404.65 -269.39)"/><path class="cls-162" d="M-109.65,322.39a2.86,2.86,0,0,1,1-2.5,26.28,26.28,0,0,0,7-1.5c.36-.68.7-1.35,1-2a5.75,5.75,0,0,0,3-1,5.62,5.62,0,0,1-3.5,5,39.28,39.28,0,0,1-1.5,7Q-111.29,330.69-109.65,322.39Z" transform="translate(404.65 -269.39)"/><path class="cls-163" d="M-109.65,322.39q6.77-5,6.5,3Q-108.79,328.35-109.65,322.39Z" transform="translate(404.65 -269.39)"/><path class="cls-164" d="M-87.65,317.39a2.87,2.87,0,0,1,3-1q-.66,6.62,6,5,1.61-6.66-5-6v-1a9.12,9.12,0,0,1,5.5,1q3.23,4.08-.5,7.5Q-85.67,324.11-87.65,317.39Z" transform="translate(404.65 -269.39)"/><path class="cls-165" d="M-125.65,321.39h-2c-.34-2,.32-3.32,2-4Z" transform="translate(404.65 -269.39)"/><path class="cls-166" d="M-196.65,330.39h-4q1.13-6.54-4-10a22.59,22.59,0,0,0,4-3,30.64,30.64,0,0,0,1.5,9,2.64,2.64,0,0,0,2.5,2Z" transform="translate(404.65 -269.39)"/><path class="cls-167" d="M117.35,338.39c-2.22-.06-3.22-1.22-3-3.5a4.49,4.49,0,0,1,3-4.5,17.23,17.23,0,0,0,.5-10q-4.56-6-5.5,1a20,20,0,0,1-1.5-6,8.86,8.86,0,0,1-4.5-4,19.55,19.55,0,0,1,6.5,3q7.16-2.17,1.5,1.5,6.53,4.86,13-.5,1-7.27,8-5.5,4,4,0,8a14.1,14.1,0,0,1-8-.5,12.83,12.83,0,0,0-6,3,6.6,6.6,0,0,0,8,1l1,1-3,2,1,1c2.57.28,5.23.45,8,.5a2.64,2.64,0,0,1,2,2.5,5,5,0,0,1-.5,3,5.5,5.5,0,0,0-1.5-3,2.7,2.7,0,0,0-2.5-2q-3.63,2.5-1.5,6v2a7.45,7.45,0,0,1-3.5-7,4.38,4.38,0,0,0-3.5-1,5,5,0,0,1-.5,3q.75-6.48-5.5-7a11.77,11.77,0,0,0,3,10Q113.05,330.17,117.35,338.39Z" transform="translate(404.65 -269.39)"/><path class="cls-168" d="M71.35,320.39a14.64,14.64,0,0,1,9-3A24.07,24.07,0,0,1,71.35,320.39Z" transform="translate(404.65 -269.39)"/><path class="cls-169" d="M-84.65,316.39a.88.88,0,0,0,1-1q6.62-.66,5,6Q-85.31,323-84.65,316.39Z" transform="translate(404.65 -269.39)"/><path class="cls-170" d="M-217.65,321.39l15-6A26.13,26.13,0,0,1-217.65,321.39Z" transform="translate(404.65 -269.39)"/><path class="cls-171" d="M-28.65,322.39a16.91,16.91,0,0,0-10-2,27.68,27.68,0,0,1-11-3.5,61.74,61.74,0,0,1-14-12.5q-1.49-4-3-8,3.09-8,6.5-16a33.58,33.58,0,0,0,1.5-11h4q-.32,5.64,3,2a4.52,4.52,0,0,1,2,4.5,113.39,113.39,0,0,1-3.5,11.5,19.88,19.88,0,0,0-3.5,2q-6.42,5.83,2,9,7.76-2.55,3-9a47.29,47.29,0,0,1,5-12,5.21,5.21,0,0,0,3,3,20.63,20.63,0,0,1-1-5h13a2.65,2.65,0,0,0,3,3q4.77,2.53,6-3-.47-6.51-6-4a2.73,2.73,0,0,0-3,2,64.51,64.51,0,0,1-16-1,5.58,5.58,0,0,1-1-3h34a14.53,14.53,0,0,0,4,6c-.34,2,.32,3.32,2,4a67.2,67.2,0,0,1,.5,17q-2.73,14.33-4.5,29A36.53,36.53,0,0,0-28.65,322.39Z" transform="translate(404.65 -269.39)"/><path class="cls-172" d="M-97.65,315.39q2.33-3.63,5,0-1.92,1.82,0,4a8.65,8.65,0,0,1,5,3,4.86,4.86,0,0,1-4,1q2.39,3.93,5,8a6.87,6.87,0,0,1-2,4q-6.28,2.73-8-4a12.3,12.3,0,0,0,3-8,29.41,29.41,0,0,1-5,.5Q-93.58,319.78-97.65,315.39Z" transform="translate(404.65 -269.39)"/><path class="cls-173" d="M-89.65,334.39q-7,.74-4-5.5Q-86.49,327.67-89.65,334.39Z" transform="translate(404.65 -269.39)"/><path class="cls-174" d="M-66.65,322.39v-17h1a9.2,9.2,0,0,1,1,5Q-65.65,316.39-66.65,322.39Z" transform="translate(404.65 -269.39)"/><path class="cls-175" d="M-115.65,307.39a.88.88,0,0,1,1-1q8.12-1.14,6,7a5.41,5.41,0,0,1-6,1.5Q-119.74,311.41-115.65,307.39Z" transform="translate(404.65 -269.39)"/><path class="cls-176" d="M-186.65,320.39v-14a19.42,19.42,0,0,1,4-9q11.79-6.15,24-11.5a10.75,10.75,0,0,0,4-5.5,2.23,2.23,0,0,0,1.5-1q2.15,8-5.5,10.5a8.39,8.39,0,0,0,4,.5,6.88,6.88,0,0,1-1,5,115.15,115.15,0,0,1-14,5q-8.62-2.83-7.5,6a6,6,0,0,0,7.5,1,25.32,25.32,0,0,1,2-5q5.11-2.17,10.5-4a7.42,7.42,0,0,1-.5,6,32.84,32.84,0,0,1-1,8,21,21,0,0,1-16,2.5,5.68,5.68,0,0,0-1.5,6.5,2.85,2.85,0,0,0,2.5,1q6.54,2.43,7-5l7-2q.68,5.6-5,6.5a8.39,8.39,0,0,0,4,.5,8.5,8.5,0,0,1-5.5,7q-1.54,6.36,5,7a4.92,4.92,0,0,0,4-3,52.09,52.09,0,0,0-2.5-10,29.41,29.41,0,0,0,5,.5,7.15,7.15,0,0,1-2.5-8.5,26,26,0,0,0,5,5,18.24,18.24,0,0,0,1.5,6q2.27,2.91,6,1.5c2.05-1.68,2.39-3.51,1-5.5a2.86,2.86,0,0,0-1-2.5l-7-1a32.25,32.25,0,0,0-4-4.5,9.83,9.83,0,0,1,1-6q2,2.07,3-.5a7.75,7.75,0,0,1-1-8.5q7.93,4.91,8,14a3.79,3.79,0,0,0,4,2,4.61,4.61,0,0,0,3-1q3.83-3.9,0-8a24.79,24.79,0,0,0-7-1.5l-8.5-8.5a7,7,0,0,1,1.5-6,7.24,7.24,0,0,1,2.5,2c.17-.33.33-.67.5-1a19.84,19.84,0,0,1-3-4.5c.53-2.86,1.19-5.69,2-8.5a1.11,1.11,0,0,1,1,1,36.31,36.31,0,0,0,3.5,11,103.5,103.5,0,0,1,16,18,41.32,41.32,0,0,1-1.5,18,51.06,51.06,0,0,1-20,19q-8,5.22-16,9.5-8.07-11.88-16.5-23.5A23.81,23.81,0,0,1-186.65,320.39Z" transform="translate(404.65 -269.39)"/><path class="cls-177" d="M-137.65,314.39a4.61,4.61,0,0,1-3,1,3.79,3.79,0,0,1-4-2h2A6.83,6.83,0,0,0-137.65,314.39Z" transform="translate(404.65 -269.39)"/><path class="cls-178" d="M-173.65,322.39a2.85,2.85,0,0,1-2.5-1,5.68,5.68,0,0,1,1.5-6.5,21,21,0,0,0,16-2.5,32.84,32.84,0,0,0,1-8,3.11,3.11,0,0,1,3,1,8.27,8.27,0,0,0-1,9,32.25,32.25,0,0,1,4,4.5l7,1a2.86,2.86,0,0,1,1,2.5q-7.56-5.22-7,4a18.24,18.24,0,0,1-1.5-6,26,26,0,0,1-5-5,7.15,7.15,0,0,0,2.5,8.5,29.41,29.41,0,0,1-5-.5,52.09,52.09,0,0,1,2.5,10,4.92,4.92,0,0,1-4,3q-6.56-.63-5-7a8.5,8.5,0,0,0,5.5-7,8.39,8.39,0,0,1-4-.5q5.67-.92,5-6.5l-7,2Q-167.1,324.83-173.65,322.39Z" transform="translate(404.65 -269.39)"/><path class="cls-179" d="M-173.65,322.39q-4.57-7.42,4-6Q-167.32,322.09-173.65,322.39Z" transform="translate(404.65 -269.39)"/><path class="cls-180" d="M-150.65,326.39q-.56-9.22,7-4a4.38,4.38,0,0,1-1,3.5A18.36,18.36,0,0,1-150.65,326.39Z" transform="translate(404.65 -269.39)"/><path class="cls-181" d="M-150.65,326.39a18.36,18.36,0,0,0,6-.5,4.38,4.38,0,0,0,1-3.5c1.39,2,1.05,3.82-1,5.5Q-148.38,329.3-150.65,326.39Z" transform="translate(404.65 -269.39)"/><path class="cls-182" d="M-159.65,334.39q-7,.74-4-5.5Q-156.49,327.67-159.65,334.39Z" transform="translate(404.65 -269.39)"/><path class="cls-183" d="M-293.65,339.39q-1-5.5-2-11a4,4,0,0,0,0-5,23.29,23.29,0,0,1-16,2.5,2.23,2.23,0,0,1-1-1.5v-3q19.65,6.56,27.5-12,3.75-20.25-16.5-16.5a13.09,13.09,0,0,0-7,9.5h-2q5.23-14.91,21-11.5a16,16,0,0,1,6,5.5,74.17,74.17,0,0,1,1,12q-4.61,6.86,3,3.5,13.18-4,18,8.5a41.08,41.08,0,0,1-.5,9,40.11,40.11,0,0,0-1.5-9q-8.24-11.29-21-4.5Q-296.36,324.78-293.65,339.39Z" transform="translate(404.65 -269.39)"/><path class="cls-184" d="M-337.65,306.39h1q-2.1,6.66,5,5.5c1.48-2.23,1.15-4.07-1-5.5a.88.88,0,0,1,1-1,2.26,2.26,0,0,1,1.5,1,9.21,9.21,0,0,1,0,6Q-339.75,316-337.65,306.39Z" transform="translate(404.65 -269.39)"/><path class="cls-185" d="M134.35,317.39q-7,.74-4-5.5a13,13,0,0,1,5-.5A12.1,12.1,0,0,1,134.35,317.39Z" transform="translate(404.65 -269.39)"/><path class="cls-186" d="M-87.65,317.39a16.33,16.33,0,0,0-5-2q-2.68-3.63-5,0a5.75,5.75,0,0,1-3,1q4.4-3.9,2-9a1.11,1.11,0,0,1,1-1,10.28,10.28,0,0,1,1.5,4,8.94,8.94,0,0,1,2.5-5,1.83,1.83,0,0,1,2,1,3.09,3.09,0,0,1-3,1,9.05,9.05,0,0,0,1,5.5,18.87,18.87,0,0,1,7,2.5,10,10,0,0,0,3-1v1a.88.88,0,0,1-1,1A2.87,2.87,0,0,0-87.65,317.39Z" transform="translate(404.65 -269.39)"/><path class="cls-187" d="M-120.65,332.39a16.88,16.88,0,0,1-5-11v-4a20.81,20.81,0,0,1,1-9,71.78,71.78,0,0,0,.5,12q2,5,3.5,10Z" transform="translate(404.65 -269.39)"/><path class="cls-188" d="M-186.65,320.39a81.88,81.88,0,0,1-1.5-13,5.5,5.5,0,0,1-1.5,3,2.87,2.87,0,0,0-1-3c.9-2.12,2.24-2.45,4-1Z" transform="translate(404.65 -269.39)"/><path class="cls-189" d="M-115.65,307.39q6.93-1.63,5.5,5Q-117.17,315.15-115.65,307.39Z" transform="translate(404.65 -269.39)"/><path class="cls-190" d="M-336.65,306.39h4c2.15,1.43,2.48,3.27,1,5.5Q-338.76,313-336.65,306.39Z" transform="translate(404.65 -269.39)"/><path class="cls-191" d="M-31.65,306.39a2.87,2.87,0,0,1,1-3q.42,5.6,6,3.5a5.24,5.24,0,0,0,0-5.5,2.26,2.26,0,0,1,1.5,1,18.63,18.63,0,0,1,.5,6Q-28.08,311.08-31.65,306.39Z" transform="translate(404.65 -269.39)"/><path class="cls-192" d="M-40.65,307.39a4.61,4.61,0,0,1-3,1,3.79,3.79,0,0,1-4-2h2A6.83,6.83,0,0,0-40.65,307.39Z" transform="translate(404.65 -269.39)"/><path class="cls-193" d="M-137.65,314.39a6.83,6.83,0,0,1-5-1h-2v-7h7Q-133.82,310.49-137.65,314.39Z" transform="translate(404.65 -269.39)"/><path class="cls-194" d="M-142.65,313.39q-3.16-6.72,4-5.5Q-135.66,314.12-142.65,313.39Z" transform="translate(404.65 -269.39)"/><path class="cls-195" d="M-169.65,300.39l2,2a25.32,25.32,0,0,0-2,5,6,6,0,0,1-7.5-1Q-178.27,297.56-169.65,300.39Z" transform="translate(404.65 -269.39)"/><path class="cls-196" d="M-63.65,324.39h-1v-14a9.2,9.2,0,0,0-1-5,1.62,1.62,0,0,1,2-1,5.75,5.75,0,0,0,1,3A72.92,72.92,0,0,0-63.65,324.39Z" transform="translate(404.65 -269.39)"/><path class="cls-197" d="M-98.65,307.39c-.58,1.27-1.24,1.27-2,0,.36-.68.7-1.35,1-2a5.75,5.75,0,0,1,3-1,2.87,2.87,0,0,1,3,1,8.94,8.94,0,0,0-2.5,5,10.28,10.28,0,0,0-1.5-4A1.11,1.11,0,0,0-98.65,307.39Z" transform="translate(404.65 -269.39)"/><path class="cls-198" d="M-171.65,307.39q-5.35-.39-4-6Q-166.71,300.31-171.65,307.39Z" transform="translate(404.65 -269.39)"/><path class="cls-199" d="M-84.65,306.39a6.51,6.51,0,0,0-1-4.5,3.31,3.31,0,0,0,2-1.5q6.32-3.11,8,3.5Q-78.17,311.31-84.65,306.39Z" transform="translate(404.65 -269.39)"/><path class="cls-200" d="M22.35,300.39a50.46,50.46,0,0,1,1-24h2q22.68-7.2,39.5,10a37.66,37.66,0,0,1,5.5,20,20,20,0,0,1-9,14,31.72,31.72,0,0,1-13,2q-10.2-.22-15-9a54,54,0,0,1-1-14,12.08,12.08,0,0,1,7-7q10.74-1.62,15,8,.24,11.78-11,9-5.2-3.48-1-8c.68,1.1,1.34,2.1,2,3q2.55,3.94,5.5,0a4.36,4.36,0,0,0-1.5-5q-11.85-3.37-8.5,9a18.53,18.53,0,0,0,7.5,5,18.25,18.25,0,0,0,9-2c.46-3,.8-6,1-9a16.71,16.71,0,0,0-11-12,25.66,25.66,0,0,0-10-1,41.08,41.08,0,0,0-.5-9,2.87,2.87,0,0,0-2.5-1,6.88,6.88,0,0,0-5,1,5.39,5.39,0,0,0-3,5,4.74,4.74,0,0,0,3,4,18.24,18.24,0,0,0,6,1.5,2.23,2.23,0,0,0-1,1.5,19.9,19.9,0,0,0-4,15,6.48,6.48,0,0,0,1,4.5,5,5,0,0,1-3,.5,19.82,19.82,0,0,0-15,1.5,7,7,0,0,0-2,2.5,4.26,4.26,0,0,0-2.5,3,19.9,19.9,0,0,0,2,14,15.72,15.72,0,0,0,6.5,5,22.12,22.12,0,0,0,11,.5,5.38,5.38,0,0,0,3-3.5,4.61,4.61,0,0,0,1-3,31.08,31.08,0,0,0-3-10l-6-1a6.75,6.75,0,0,0-6,3,4.65,4.65,0,0,0-1,3,3.79,3.79,0,0,0,2,4q1.74,2.82,5,1.5a5,5,0,0,0,0-6,5.78,5.78,0,0,1-5-2.5q11.42-4.08,11,8a6.88,6.88,0,0,1-3,4.5,40.48,40.48,0,0,1-9,.5,46.29,46.29,0,0,0-5.5-6,32.51,32.51,0,0,1,.5-13c1.29-1,2.63-2,4-3a25.06,25.06,0,0,1,14,0,24.64,24.64,0,0,1,9.5,9q7.2,19.35-11.5,27.5-15.66,2.94-27-8-14.61-17.82-6-39.5a191.41,191.41,0,0,1,27,1A7.14,7.14,0,0,0,22.35,300.39Z" transform="translate(404.65 -269.39)"/><path class="cls-201" d="M47.35,313.39l2-2a11,11,0,0,0,6-5c.67-1.33,1.33-2.67,2-4-.2,3-.54,6-1,9A18.25,18.25,0,0,1,47.35,313.39Z" transform="translate(404.65 -269.39)"/><path class="cls-202" d="M49.35,311.39a7.1,7.1,0,0,1-6-2q11.25,2.78,11-9a9.66,9.66,0,0,1,1,6A11,11,0,0,1,49.35,311.39Z" transform="translate(404.65 -269.39)"/><path class="cls-203" d="M5.35,318.39q-9.88,1.65-8.5-8,5-4,10,0A8.27,8.27,0,0,1,5.35,318.39Z" transform="translate(404.65 -269.39)"/><path class="cls-204" d="M29.35,315.39a25.06,25.06,0,0,0-14,0,2.23,2.23,0,0,1,1-1.5,60,60,0,0,0,11-1.5,5,5,0,0,0,3-.5,6.48,6.48,0,0,1-1-4.5,5.5,5.5,0,0,1,1.5,3,60.16,60.16,0,0,1,1.5-11,54,54,0,0,0,1,14,6.29,6.29,0,0,1-5,.5A2.23,2.23,0,0,1,29.35,315.39Z" transform="translate(404.65 -269.39)"/><path class="cls-205" d="M4.35,315.39h-5v-5h5Z" transform="translate(404.65 -269.39)"/><path class="cls-206" d="M11.35,318.39a1.62,1.62,0,0,1-1-2,7,7,0,0,1,2-2.5,19.82,19.82,0,0,1,15-1.5,60,60,0,0,1-11,1.5,2.23,2.23,0,0,0-1,1.5C14,316.4,12.64,317.4,11.35,318.39Z" transform="translate(404.65 -269.39)"/><path class="cls-207" d="M16.35,338.39a15.72,15.72,0,0,1-6.5-5,19.9,19.9,0,0,1-2-14,4.26,4.26,0,0,1,2.5-3,1.62,1.62,0,0,0,1,2,32.51,32.51,0,0,0-.5,13,46.29,46.29,0,0,1,5.5,6Z" transform="translate(404.65 -269.39)"/><path class="cls-208" d="M30.35,335.39c.21-1.68-.45-2.68-2-3q.41-12.09-11-8h-1a6.75,6.75,0,0,1,6-3l6,1a31.08,31.08,0,0,1,3,10A4.61,4.61,0,0,1,30.35,335.39Z" transform="translate(404.65 -269.39)"/><path class="cls-209" d="M17.35,331.39a3.79,3.79,0,0,1-2-4,4.65,4.65,0,0,1,1-3A21.46,21.46,0,0,0,17.35,331.39Z" transform="translate(404.65 -269.39)"/><path class="cls-210" d="M17.35,331.39a21.46,21.46,0,0,1-1-7h1a5.78,5.78,0,0,0,5,2.5,5,5,0,0,1,0,6Q19.1,334.21,17.35,331.39Z" transform="translate(404.65 -269.39)"/><path class="cls-211" d="M16.35,338.39v-1a40.48,40.48,0,0,0,9-.5,6.88,6.88,0,0,0,3-4.5c1.55.32,2.21,1.32,2,3a5.38,5.38,0,0,1-3,3.5A22.12,22.12,0,0,1,16.35,338.39Z" transform="translate(404.65 -269.39)"/><path class="cls-212" d="M-30.65,303.39a7.16,7.16,0,0,1,6-2,5.24,5.24,0,0,1,0,5.5Q-30.23,309-30.65,303.39Z" transform="translate(404.65 -269.39)"/><path class="cls-213" d="M-77.65,306.39a12.81,12.81,0,0,1-5-.5q-2.25-5.76,4-4A6.51,6.51,0,0,1-77.65,306.39Z" transform="translate(404.65 -269.39)"/><path class="cls-214" d="M-246.65,310.39a7.13,7.13,0,0,1-2-6h-19a101,101,0,0,1,20-1A51.52,51.52,0,0,1-246.65,310.39Z" transform="translate(404.65 -269.39)"/><path class="cls-215" d="M-321.65,311.39a11.13,11.13,0,0,1-2-7.5q.58-5.75,1-11.5a10,10,0,0,0,3-3A68.78,68.78,0,0,0-321.65,311.39Z" transform="translate(404.65 -269.39)"/><path class="cls-216" d="M44.35,304.39c-.3-3.09,1-4.75,4-5a4.36,4.36,0,0,1,1.5,5Q46.9,308.33,44.35,304.39Z" transform="translate(404.65 -269.39)"/><path class="cls-217" d="M-30.65,303.39v-4a44.42,44.42,0,0,1,6,2A7.16,7.16,0,0,0-30.65,303.39Z" transform="translate(404.65 -269.39)"/><path class="cls-218" d="M-245.65,298.39a57.14,57.14,0,0,1,3-23,6.62,6.62,0,0,0,4-6h35c-.64,1-1.31,2-2,3a64.54,64.54,0,0,1-16,1q-2.13-4.27-6-2a2.65,2.65,0,0,0-2.5,2,13,13,0,0,0-.5,5,10.65,10.65,0,0,0,9,0,2.87,2.87,0,0,1,1-3,37,37,0,0,1,12,1,6.82,6.82,0,0,0-1,4,4.54,4.54,0,0,0,3-2,48.27,48.27,0,0,1,5,11q-4.75,6.45,3,9a5.12,5.12,0,0,0,5-5,4.74,4.74,0,0,0-3-4,19.88,19.88,0,0,0-3.5-2,28.68,28.68,0,0,1-3.5-16,4.72,4.72,0,0,1,4,2,4.86,4.86,0,0,0,1-4h4a40.48,40.48,0,0,0,.5,9q16.47,23.52-8.5,37l-15,6a80.78,80.78,0,0,0-23,4A120.6,120.6,0,0,0-245.65,298.39Z" transform="translate(404.65 -269.39)"/><path class="cls-219" d="M-207.65,306.39q-8.37,2.64-6-6h1Q-214.27,307-207.65,306.39Z" transform="translate(404.65 -269.39)"/><path class="cls-220" d="M-207.65,306.39q-6.61.66-5-6Q-204.89,298.65-207.65,306.39Z" transform="translate(404.65 -269.39)"/><path class="cls-221" d="M-207.65,306.39q2.75-7.74-5-6a2.87,2.87,0,0,1,1-3q5.43.44,6,6A3.23,3.23,0,0,1-207.65,306.39Z" transform="translate(404.65 -269.39)"/><path class="cls-222" d="M-229.65,302.39a13.91,13.91,0,0,1,7-3,4.62,4.62,0,0,0,1,4q-1,8.63-8.5,4A4.73,4.73,0,0,1-229.65,302.39Z" transform="translate(404.65 -269.39)"/><path class="cls-223" d="M-229.65,302.39q7.4-3.11,6,5Q-230.31,309-229.65,302.39Z" transform="translate(404.65 -269.39)"/><path class="cls-224" d="M47.35,313.39a18.53,18.53,0,0,1-7.5-5q-3.35-12.37,8.5-9c-3,.25-4.3,1.91-4,5-.66-.9-1.32-1.9-2-3q-4.2,4.51,1,8a7.1,7.1,0,0,0,6,2Z" transform="translate(404.65 -269.39)"/><path class="cls-225" d="M15.35,299.39h-20v-10a19.23,19.23,0,0,0,12-2,2.87,2.87,0,0,1,1,3h-12v8A91.12,91.12,0,0,1,15.35,299.39Z" transform="translate(404.65 -269.39)"/><path class="cls-226" d="M-40.65,307.39a6.83,6.83,0,0,1-5-1h-2a18.36,18.36,0,0,1,.5-6q2.82-1.67,5.5-3l2,3A5.33,5.33,0,0,1-40.65,307.39Z" transform="translate(404.65 -269.39)"/><path class="cls-227" d="M-45.65,306.39q-3.16-6.72,4-5.5Q-38.66,307.12-45.65,306.39Z" transform="translate(404.65 -269.39)"/><path class="cls-228" d="M-155.65,314.39a8.27,8.27,0,0,1,1-9,3.11,3.11,0,0,0-3-1,7.42,7.42,0,0,0,.5-6q-5.39,1.83-10.5,4l-2-2a115.15,115.15,0,0,0,14-5,18.36,18.36,0,0,0,.5,6,6.87,6.87,0,0,1,1.5-3,1.11,1.11,0,0,1,1,1,7.75,7.75,0,0,0,1,8.5q-1,2.57-3,.5A9.83,9.83,0,0,0-155.65,314.39Z" transform="translate(404.65 -269.39)"/><path class="cls-229" d="M71.35,297.39a20.81,20.81,0,0,1-1,9,37.66,37.66,0,0,0-5.5-20q-16.83-17.2-39.5-10a2.23,2.23,0,0,1,1-1.5,25.77,25.77,0,0,0,8-2,18.63,18.63,0,0,0-6-.5v-1a11.32,11.32,0,0,0,9-2h12q11.3,14.78,30,14a7.06,7.06,0,0,1,3,2q-7.09,0-14-.5l12.5,8.5q3.69-1.65,7.5-3,1.61-8.55,9.5-5a8.79,8.79,0,0,1,1.5,5l-2,1a2.69,2.69,0,0,1-2.5,2q-6.07-3.9-11.5,1,3.21,5.48,8,1l1,1q-5.7,2.7.5,5,3.69-1.65,7.5-3c1.33.67,1.33,1.33,0,2a16.18,16.18,0,0,0-5,2.5,5.61,5.61,0,0,0,7,.5l1,1q-5.77,2.82,1,4,7-.7,9.5-7l1,3q5.19-.7,5-6,9.78-5.24,8,6a5.86,5.86,0,0,1-6.5,0,10.05,10.05,0,0,0-6,1.5c1.9,1.07,2.06,1.9.5,2.5a11.55,11.55,0,0,0-10.5,1.5,2.23,2.23,0,0,1,1,1.5q-4.18,5.4,1,10.5a1.66,1.66,0,0,1-2.5-.5c-.17,1-.33,2-.5,3a26.31,26.31,0,0,0,3,6q2,7.28-6,5.5a7.14,7.14,0,0,1-1.5-7.5,4.75,4.75,0,0,0,2-6c-.89,1.21-1.73,1.21-2.5,0a13.37,13.37,0,0,0,2-13.5l-1-.5-2,3q-4.84-14.38-6,1a52.74,52.74,0,0,1-1.5-10q-3.66-4-4,2a8.28,8.28,0,0,0-4.5-8q-2.76,6.6,2.5,11,.74,8.24-7.5,5.5a6.62,6.62,0,0,1,1.5-8.5,25.13,25.13,0,0,0,0-10l-11-8Q69.51,291.78,71.35,297.39Z" transform="translate(404.65 -269.39)"/><path class="cls-230" d="M121.35,304.39q-3.18-6.76,4-5.5,3,1.8,1,4.5A7.1,7.1,0,0,1,121.35,304.39Z" transform="translate(404.65 -269.39)"/><path class="cls-231" d="M82.35,312.39q-7,.74-4-5.5Q85.51,305.67,82.35,312.39Z" transform="translate(404.65 -269.39)"/><path class="cls-232" d="M107.35,330.39q-.87,6-6.5,3Q101.57,326.24,107.35,330.39Z" transform="translate(404.65 -269.39)"/><path class="cls-233" d="M-35.65,293.39a.88.88,0,0,0,1-1,1.62,1.62,0,0,1,1,2,1.62,1.62,0,0,0-1,1.5,8.68,8.68,0,0,0,2,2.5,11,11,0,0,1-3,3l-1-1.5A15.83,15.83,0,0,0-35.65,293.39Z" transform="translate(404.65 -269.39)"/><path class="cls-234" d="M-332.65,306.39h-5a7.06,7.06,0,0,1,3-2q1-5,2-10a34.28,34.28,0,0,0,1,11A.88.88,0,0,0-332.65,306.39Z" transform="translate(404.65 -269.39)"/><path class="cls-235" d="M55.35,306.39a9.66,9.66,0,0,0-1-6q-4.26-9.61-15-8l5-2h2a16.71,16.71,0,0,1,11,12C56.68,303.72,56,305.06,55.35,306.39Z" transform="translate(404.65 -269.39)"/><path class="cls-236" d="M-32.65,298.39a8.68,8.68,0,0,1-2-2.5,1.62,1.62,0,0,1,1-1.5h1C-31.46,295.85-31.46,297.19-32.65,298.39Z" transform="translate(404.65 -269.39)"/><path class="cls-237" d="M-108.65,313.39q2.12-8.14-6-7,11.4-2.38,14-14l2-2a9.2,9.2,0,0,0,1,5,113.26,113.26,0,0,0,14,5,3.31,3.31,0,0,1-2,1.5,6.51,6.51,0,0,1,1,4.5,31.22,31.22,0,0,0-3-5l-8-3a9.83,9.83,0,0,0-1,6,5.75,5.75,0,0,0-3,1,18.63,18.63,0,0,0-.5-6,55.29,55.29,0,0,1-6.5,6Q-107.52,309.61-108.65,313.39Z" transform="translate(404.65 -269.39)"/><path class="cls-238" d="M-221.65,303.39a4.62,4.62,0,0,1-1-4v-3a3.08,3.08,0,0,1-3-1,7.14,7.14,0,0,1,5-1q-2.59,4.91,2,3,3,1.39,1,4Q-222,297-221.65,303.39Z" transform="translate(404.65 -269.39)"/><path class="cls-239" d="M-31.65,306.39c-.38-2.58-.72-5.25-1-8,1.19-1.2,1.19-2.54,0-4a7.15,7.15,0,0,1,5,1,3.09,3.09,0,0,1-3,1v7A2.87,2.87,0,0,0-31.65,306.39Z" transform="translate(404.65 -269.39)"/><path class="cls-240" d="M-39.65,300.39l-2-3a12.74,12.74,0,0,1,3-6,1.62,1.62,0,0,1,2,1A8.12,8.12,0,0,0-39.65,300.39Z" transform="translate(404.65 -269.39)"/><path class="cls-241" d="M29.35,307.39a19.9,19.9,0,0,1,4-15,22.38,22.38,0,0,1,11-2l-5,2a12.08,12.08,0,0,0-7,7,60.16,60.16,0,0,0-1.5,11A5.5,5.5,0,0,0,29.35,307.39Z" transform="translate(404.65 -269.39)"/><path class="cls-242" d="M-201.65,289.39h5a4.74,4.74,0,0,1,3,4,5.12,5.12,0,0,1-5,5Q-206.4,295.84-201.65,289.39Z" transform="translate(404.65 -269.39)"/><path class="cls-108" d="M-196.65,296.39q-7,.74-4-5.5Q-193.49,289.67-196.65,296.39Z" transform="translate(404.65 -269.39)"/><path class="cls-243" d="M-268.65,299.39a100.94,100.94,0,0,1-1-20,21.15,21.15,0,0,1,9,1,15.45,15.45,0,0,0-1,7v3h12v9Z" transform="translate(404.65 -269.39)"/><path class="cls-244" d="M15.35,299.39a91.12,91.12,0,0,0-19-1v-8h12a2.87,2.87,0,0,0-1-3v-8h9A100.94,100.94,0,0,1,15.35,299.39Z" transform="translate(404.65 -269.39)"/><path class="cls-245" d="M-27.65,290.39v-3a11.92,11.92,0,0,1,5-3,2.76,2.76,0,0,1,3,2q3.94,3.06,0,6.5Q-24.79,294.65-27.65,290.39Z" transform="translate(404.65 -269.39)"/><path class="cls-246" d="M-130.65,326.39a41.32,41.32,0,0,0,1.5-18,103.5,103.5,0,0,0-16-18,36.31,36.31,0,0,1-3.5-11h1a60,60,0,0,0,4.5,9l16,16a99.74,99.74,0,0,0,20-21,53.24,53.24,0,0,0,1.5-14h3a30.07,30.07,0,0,0,8,12.5q12.15,5.76,24,11.5a108.34,108.34,0,0,0,8.5-17,17.64,17.64,0,0,0,1.5-7h2a33.58,33.58,0,0,1-1.5,11q-3.41,8-6.5,16,1.52,4,3,8a1.62,1.62,0,0,0-2,1h-1a16.65,16.65,0,0,0-4-8.5,135.62,135.62,0,0,0-20-9,56.66,56.66,0,0,1-9.5-8.5,5,5,0,0,0-.5,3h-2a3.09,3.09,0,0,0-1-3,4.86,4.86,0,0,0-1,4,24.33,24.33,0,0,0-4,7,201.74,201.74,0,0,0-16,18,20.81,20.81,0,0,0-1,9c-1.68.68-2.34,2-2,4A9.06,9.06,0,0,1-130.65,326.39Z" transform="translate(404.65 -269.39)"/><path class="cls-247" d="M-97.65,295.39q.5,9.15-2,2A3,3,0,0,1-97.65,295.39Z" transform="translate(404.65 -269.39)"/><path class="cls-248" d="M-19.65,286.39q1.63,6.93-5,5.5Q-27.4,284.89-19.65,286.39Z" transform="translate(404.65 -269.39)"/><path class="cls-249" d="M33.35,292.39a2.23,2.23,0,0,1,1-1.5,18.24,18.24,0,0,1-6-1.5q9.84,1.62,6.5-8a4.24,4.24,0,0,1-1.5-2,2.87,2.87,0,0,1,2.5,1,41.08,41.08,0,0,1,.5,9,25.66,25.66,0,0,1,10,1h-2A22.38,22.38,0,0,0,33.35,292.39Z" transform="translate(404.65 -269.39)"/><path class="cls-250" d="M-56.65,289.39h5q4.76,6.45-3,9Q-63.08,295.22-56.65,289.39Z" transform="translate(404.65 -269.39)"/><path class="cls-251" d="M-52.65,296.39q-7,.74-4-5.5Q-49.49,289.67-52.65,296.39Z" transform="translate(404.65 -269.39)"/><path class="cls-252" d="M-220.65,294.39a2.72,2.72,0,0,0,2-3q3.42-5.89,2,1a6,6,0,0,0-2,5Q-223.24,299.3-220.65,294.39Z" transform="translate(404.65 -269.39)"/><path class="cls-253" d="M97.35,291.39q-6.93,1.64-5.5-5Q98.85,283.65,97.35,291.39Z" transform="translate(404.65 -269.39)"/><path class="cls-254" d="M-34.65,291.39a23,23,0,0,0-3-4h10v3A12.86,12.86,0,0,0-34.65,291.39Z" transform="translate(404.65 -269.39)"/><path class="cls-255" d="M-35.65,293.39a.88.88,0,0,1-1-1,1.62,1.62,0,0,0-2-1,11.55,11.55,0,0,0-4-7h-1v-4a13.14,13.14,0,0,1,7,1,3.09,3.09,0,0,1-3,1,6,6,0,0,0,2,5,23,23,0,0,1,3,4v1A.88.88,0,0,1-35.65,293.39Z" transform="translate(404.65 -269.39)"/><path class="cls-256" d="M-100.65,292.39a1.83,1.83,0,0,0-1-2q-5.28,3.47-1-2a6.93,6.93,0,0,1,4-1,1.83,1.83,0,0,1,2,1c-.74.68-1.41,1.35-2,2Z" transform="translate(404.65 -269.39)"/><path class="cls-257" d="M-108.65,290.39a24.33,24.33,0,0,1,4-7A8.74,8.74,0,0,1-108.65,290.39Z" transform="translate(404.65 -269.39)"/><path class="cls-258" d="M-233.65,286.39q4-4.14,7,1v4a2.23,2.23,0,0,1-1,1.5q-6.47,2.31-8-4A2.65,2.65,0,0,1-233.65,286.39Z" transform="translate(404.65 -269.39)"/><path class="cls-259" d="M-233.65,286.39q6.93-1.63,5.5,5Q-235.17,294.15-233.65,286.39Z" transform="translate(404.65 -269.39)"/><path class="cls-120" d="M-293.65,339.39q-2.72-14.61,9-23.5,12.76-6.79,21,4.5a61.44,61.44,0,0,1-1,13,14.8,14.8,0,0,0,3.5-3,17.35,17.35,0,0,0-.5-10q-4.82-12.48-18-8.5-7.61,3.35-3-3.5a9.88,9.88,0,0,0,1-4.5,12.59,12.59,0,0,0-2-7.5,16,16,0,0,0-6-5.5q-15.77-3.42-21,11.5-1.23,11.26,10,11,12.09-3.48,6-14.5a8.8,8.8,0,0,0-7,.5q-4.29,4.35,1.5,7a2.69,2.69,0,0,0,2.5-2c.66-.9,1.32-1.9,2-3q4,5.36-2,9.5a12.81,12.81,0,0,1-5,.5q-6.63-2.11-6-9a13.09,13.09,0,0,1,7-9.5q20.25-3.75,16.5,16.5-7.85,18.56-27.5,12a16.63,16.63,0,0,1-9-10,68.78,68.78,0,0,1,2-22q11.28-15.78,31-15,7,1.2,14,2,.25,12-.5,24a15.1,15.1,0,0,1-1.5,4.5,63.65,63.65,0,0,0,9-.5h19a7.13,7.13,0,0,0,2,6,40.15,40.15,0,0,1,1,20,33.75,33.75,0,0,1-20,21.5Q-284.45,355.9-293.65,339.39Z" transform="translate(404.65 -269.39)"/><path class="cls-260" d="M-280.65,289.39q-10.8,1.2-7-9,8.17-3.75,9,5A7.14,7.14,0,0,1-280.65,289.39Z" transform="translate(404.65 -269.39)"/><path class="cls-261" d="M-300.65,313.39l-2-2a12.81,12.81,0,0,0,5-.5q6-4.14,2-9.5c-.68,1.1-1.34,2.1-2,3,.3-3.09-1-4.75-4-5a8.8,8.8,0,0,1,7-.5Q-288.56,309.92-300.65,313.39Z" transform="translate(404.65 -269.39)"/><path class="cls-262" d="M-301.65,299.39c3,.25,4.3,1.91,4,5a2.69,2.69,0,0,1-2.5,2Q-305.94,303.74-301.65,299.39Z" transform="translate(404.65 -269.39)"/><path class="cls-263" d="M-282.65,308.39a74.17,74.17,0,0,0-1-12,12.59,12.59,0,0,1,2,7.5A9.88,9.88,0,0,1-282.65,308.39Z" transform="translate(404.65 -269.39)"/><path class="cls-264" d="M-300.65,313.39q-11.24.27-10-11h2q-.63,6.89,6,9Z" transform="translate(404.65 -269.39)"/><path class="cls-265" d="M-251.65,310.39q4,3.94-1,7.5-12,1.38-6-9a9.21,9.21,0,0,1,6,0A2.23,2.23,0,0,1-251.65,310.39Z" transform="translate(404.65 -269.39)"/><path class="cls-266" d="M-251.65,310.39q.66,6.62-6,5Q-259,307.28-251.65,310.39Z" transform="translate(404.65 -269.39)"/><path class="cls-267" d="M-264.65,333.39a61.44,61.44,0,0,0,1-13,40.11,40.11,0,0,1,1.5,9,41.08,41.08,0,0,0,.5-9,17.35,17.35,0,0,1,.5,10A14.8,14.8,0,0,1-264.65,333.39Z" transform="translate(404.65 -269.39)"/><path class="cls-268" d="M-270.65,331.39a21.46,21.46,0,0,0,1-7,4.65,4.65,0,0,1,1,3A3.79,3.79,0,0,1-270.65,331.39Z" transform="translate(404.65 -269.39)"/><path class="cls-269" d="M-269.65,324.39a21.46,21.46,0,0,1-1,7q-2.36,3.33-6,1-1.77-7,6-6.5-9.53-6.56-12,5,3.43,9,13,6a10.69,10.69,0,0,1,5-3.5,8.19,8.19,0,0,1-5,5.5q-21.86,2.7-11-16Q-274.4,319.44-269.65,324.39Z" transform="translate(404.65 -269.39)"/><path class="cls-270" d="M28.35,289.39a4.74,4.74,0,0,1-3-4,5.39,5.39,0,0,1,3-5,6.88,6.88,0,0,1,5-1,4.24,4.24,0,0,0,1.5,2Q38.19,291,28.35,289.39Z" transform="translate(404.65 -269.39)"/><path class="cls-271" d="M-375.65,332.39q4.29-4.18,2-10-5,1.59-4.5,7a5,5,0,0,1-.5-3,4.38,4.38,0,0,0-3.5,1q-1,10.67-10,5-.56-9.37,8.5-6,6-2,0-4a4.78,4.78,0,0,1,5,0,5.81,5.81,0,0,0,4-2,12.83,12.83,0,0,0-6-3,14.1,14.1,0,0,1-8,.5q-5.5-9,5-8a15.12,15.12,0,0,1,3,5.5,28.64,28.64,0,0,0,8,3q6.81-1.71,1-5l1-1q6.57,4.25,11-2.5a8.45,8.45,0,0,0-5.5-2.5,11.28,11.28,0,0,1-5.5.5q3.57-3.15-2-3.5-12.94,4.32-7-7.5,7.36-1.65,8,6a11.37,11.37,0,0,1,3.5,1.5c.33-1,.67-2,1-3a20.61,20.61,0,0,1,2.5,4.5l7,2.5q6.78-1.17,1-4a4.57,4.57,0,0,1,5,1,6.6,6.6,0,0,0,3-3,31.61,31.61,0,0,0-7-3.5,69.85,69.85,0,0,1,11,2q4.18-3-1-4.5l1-1q4.8,4.49,8-1c-1.4-1-2.74-2-4-3a11.21,11.21,0,0,1,6,2q6.7-4,13-8.5a32,32,0,0,1-27-6,69.55,69.55,0,0,1-4.5-6.5q-.66,7-1.5,14-.75,8.73-9,11a8.54,8.54,0,0,1-6.5-3q-.41-6.67-.5-13a54.74,54.74,0,0,1-11,10.5q-13.25,2.75-10.5-10.5a25.59,25.59,0,0,1,6.5-8.5,34.47,34.47,0,0,1-15,2,5.21,5.21,0,0,1-4-5.5h5q1.78,3.63,6,3a10,10,0,0,0,8-3h6a36.46,36.46,0,0,0-8.5,9q-2.13,15.67,11.5,7a64.76,64.76,0,0,0,11-16h2a43.24,43.24,0,0,0-4.5,21q5.82,5.94,11-1a76.12,76.12,0,0,0,1.5-20h6a24.37,24.37,0,0,0,12,12.5,30.73,30.73,0,0,0,27-4,85.43,85.43,0,0,1,8-7.5v4a23.43,23.43,0,0,1,8-2,7.87,7.87,0,0,1,6,2q-19.73-.78-31,15a10,10,0,0,1-3,3,9.06,9.06,0,0,1,3-5.5l-1-.5a74.8,74.8,0,0,0-12,8q-1,5-2,10a16.91,16.91,0,0,0-1-8,8.25,8.25,0,0,0-4.5,8q-.35-6-4-2a52.74,52.74,0,0,1-1.5,10q-1.17-15.39-6-1l-2-3a3.58,3.58,0,0,0-1.5,1,16.49,16.49,0,0,0,1.5,12,7.29,7.29,0,0,0-2,3.5,12.18,12.18,0,0,1,3,6.5q-.24,5.75-6,5-4.28-2.13-2-6a26.31,26.31,0,0,0,3-6q.31-5.28-2.5-1a3.51,3.51,0,0,1,2-4,11.22,11.22,0,0,0-.5-8,32.2,32.2,0,0,1-5.5,4,20,20,0,0,1-1.5,6q-.94-7-5.5-1-1.89,7.08,3,12,1.35,9.64-7.5,5.5A4.34,4.34,0,0,1-375.65,332.39Z" transform="translate(404.65 -269.39)"/><path class="cls-272" d="M-363.65,269.39h3a75.14,75.14,0,0,1-2,12c.33,1,.67,2,1,3a25.66,25.66,0,0,0,3-15h3a76.12,76.12,0,0,1-1.5,20q-5.18,6.94-11,1A43.24,43.24,0,0,1-363.65,269.39Z" transform="translate(404.65 -269.39)"/><path class="cls-273" d="M-350.65,291.39a3.49,3.49,0,0,1-2-4q2.79-4.25,8-2.5c1.26,2.26,2.59,4.42,4,6.5a11.2,11.2,0,0,0-7,2A2.76,2.76,0,0,1-350.65,291.39Z" transform="translate(404.65 -269.39)"/><path class="cls-274" d="M-350.65,291.39q-1.64-6.93,5-5.5Q-342.9,292.91-350.65,291.39Z" transform="translate(404.65 -269.39)"/><path class="cls-275" d="M-375.65,304.39q-6.28.15-4-5.5Q-370.72,297-375.65,304.39Z" transform="translate(404.65 -269.39)"/><path class="cls-276" d="M-383.65,317.39q-6.62.66-5-6Q-380.51,310-383.65,317.39Z" transform="translate(404.65 -269.39)"/><path class="cls-277" d="M-386.65,333.39q-7.58-3-.5-7Q-382.68,329.72-386.65,333.39Z" transform="translate(404.65 -269.39)"/><path class="cls-278" d="M-360.65,330.39q4.71-4.63,7,1.5-1.37,3.48-5,2A3.92,3.92,0,0,1-360.65,330.39Z" transform="translate(404.65 -269.39)"/><path class="cls-279" d="M-375.65,332.39q6.66-3.06,6.5,4Q-375.83,339.63-375.65,332.39Z" transform="translate(404.65 -269.39)"/><path class="cls-280" d="M-43.65,284.39h1a16.28,16.28,0,0,1-2,4Q-46.61,285.78-43.65,284.39Z" transform="translate(404.65 -269.39)"/><path class="cls-281" d="M-102.65,269.39h11a4.49,4.49,0,0,0,2,3q7.17,3.72,14,8a27.38,27.38,0,0,0,4-11h11a17.64,17.64,0,0,1-1.5,7,108.34,108.34,0,0,1-8.5,17q-11.85-5.75-24-11.5A30.07,30.07,0,0,1-102.65,269.39Z" transform="translate(404.65 -269.39)"/><path class="cls-282" d="M-102.65,288.39v-6h2a6,6,0,0,1,2,5A6.93,6.93,0,0,0-102.65,288.39Z" transform="translate(404.65 -269.39)"/><path class="cls-283" d="M-268.65,300.39v-1h19v-9h-12v-3h1c.46-3,.8-6,1-9h-11a36.61,36.61,0,0,1,12-1v10h10v13Z" transform="translate(404.65 -269.39)"/><path class="cls-284" d="M-260.65,287.39a38.36,38.36,0,0,0,7,1.5l-3.5.5A3.92,3.92,0,0,1-260.65,287.39Z" transform="translate(404.65 -269.39)"/><path class="cls-285" d="M28.35,280.39q7.49.75,3,6.5a2.74,2.74,0,0,1-3.5-.5A7.42,7.42,0,0,1,28.35,280.39Z" transform="translate(404.65 -269.39)"/><path class="cls-286" d="M-4.65,299.39h20a100.94,100.94,0,0,0,1-20h-9v8a19.09,19.09,0,0,1-12,0,13.73,13.73,0,0,0,10-2,12.86,12.86,0,0,0,1-7h11v22A121.3,121.3,0,0,1-4.65,299.39Z" transform="translate(404.65 -269.39)"/><path class="cls-287" d="M-209.65,284.39h-3a6.93,6.93,0,0,1,1-4h2Z" transform="translate(404.65 -269.39)"/><path class="cls-288" d="M-212.65,300.39h-1a8.12,8.12,0,0,0-3-8q1.43-6.9-2-1a8.87,8.87,0,0,0-8,0v-4a60.39,60.39,0,0,0,11-.5,4.6,4.6,0,0,0,2-4.5,3.08,3.08,0,0,1-3-1,7.14,7.14,0,0,1,5-1,6.93,6.93,0,0,0-1,4h3c1.07.75,1.24,1.75.5,3a3.67,3.67,0,0,0-2-2,11.6,11.6,0,0,0-3.5,4.5,72.36,72.36,0,0,1,3,7.5A2.87,2.87,0,0,0-212.65,300.39Z" transform="translate(404.65 -269.39)"/><path class="cls-289" d="M-282.65,287.39q-5.21-.92-3-5.5Q-277.84,281.08-282.65,287.39Z" transform="translate(404.65 -269.39)"/><path class="cls-290" d="M-147.65,279.39v-10h8a13,13,0,0,0,.5,5q6.28,8.61,12.5,17a55.72,55.72,0,0,0,13-22h8a53.24,53.24,0,0,1-1.5,14,99.74,99.74,0,0,1-20,21l-16-16A60,60,0,0,1-147.65,279.39Z" transform="translate(404.65 -269.39)"/><path class="cls-291" d="M-139.65,269.39h1a38.42,38.42,0,0,0,12,17,38.26,38.26,0,0,0,12-17h1a55.72,55.72,0,0,1-13,22q-6.21-8.38-12.5-17A13,13,0,0,1-139.65,269.39Z" transform="translate(404.65 -269.39)"/><path class="cls-292" d="M-379.65,269.39h6a89.52,89.52,0,0,1-7,9.5,4.61,4.61,0,0,0,4-1,92.31,92.31,0,0,1,7-8.5h4a64.76,64.76,0,0,1-11,16q-13.62,8.67-11.5-7A36.46,36.46,0,0,1-379.65,269.39Z" transform="translate(404.65 -269.39)"/><path class="cls-293" d="M22.35,300.39a11.38,11.38,0,0,1-2-5v-19h3A50.46,50.46,0,0,0,22.35,300.39Z" transform="translate(404.65 -269.39)"/><path class="cls-294" d="M-349.65,269.39h47v1a85.43,85.43,0,0,0-8,7.5,30.73,30.73,0,0,1-27,4A24.37,24.37,0,0,1-349.65,269.39Z" transform="translate(404.65 -269.39)"/><path class="cls-290" d="M-192.65,269.39h11q1.25,5.46,2,11a31.75,31.75,0,0,0,18-11h11a18.6,18.6,0,0,1-3,7,1.62,1.62,0,0,0-1,2,84.39,84.39,0,0,1-10,7.5,96,96,0,0,0-18,7.5q-3.25-5.92-6.5-12A35.49,35.49,0,0,1-192.65,269.39Z" transform="translate(404.65 -269.39)"/><path class="cls-295" d="M-268.65,299.39v1a61.77,61.77,0,0,1-2-22h11c-.2,3-.54,6-1,9h-1a15.45,15.45,0,0,1,1-7,21.15,21.15,0,0,0-9-1A100.94,100.94,0,0,0-268.65,299.39Z" transform="translate(404.65 -269.39)"/><path class="cls-296" d="M5.35,285.39a16.59,16.59,0,0,1-1-8,42.94,42.94,0,0,1,13,1h-11A12.86,12.86,0,0,1,5.35,285.39Z" transform="translate(404.65 -269.39)"/><path class="cls-297" d="M-91.65,269.39h3a45.1,45.1,0,0,1,11.5,8,3.64,3.64,0,0,0,2-2,18.63,18.63,0,0,0,.5-6h3a27.38,27.38,0,0,1-4,11q-6.82-4.27-14-8A4.49,4.49,0,0,1-91.65,269.39Z" transform="translate(404.65 -269.39)"/><path class="cls-298" d="M-181.65,269.39h3a51.52,51.52,0,0,1,1,7,32,32,0,0,0,14-7h2a31.75,31.75,0,0,1-18,11Q-180.41,274.84-181.65,269.39Z" transform="translate(404.65 -269.39)"/><path class="cls-299" d="M-227.65,271.39q3.87-2.26,6,2l1,2a2.87,2.87,0,0,0-1,3,10.65,10.65,0,0,1-9,0,13,13,0,0,1,.5-5A2.65,2.65,0,0,1-227.65,271.39Z" transform="translate(404.65 -269.39)"/><path class="cls-300" d="M-257.65,277.39a18.25,18.25,0,0,0,9-2,17.22,17.22,0,0,1,0,11h-9Z" transform="translate(404.65 -269.39)"/><path class="cls-301" d="M-4.65,287.39a39.1,39.1,0,0,0-4-8,3.49,3.49,0,0,0-2-4,29.31,29.31,0,0,1-.5-5,46.34,46.34,0,0,0,13.5,6,1.62,1.62,0,0,1,2,1,16.59,16.59,0,0,0,1,8A13.73,13.73,0,0,1-4.65,287.39Z" transform="translate(404.65 -269.39)"/><path class="cls-302" d="M-8.65,279.39c-1.68-.68-2.34-2-2-4A3.49,3.49,0,0,1-8.65,279.39Z" transform="translate(404.65 -269.39)"/><path class="cls-303" d="M-138.65,269.39h24a38.26,38.26,0,0,1-12,17A38.42,38.42,0,0,1-138.65,269.39Z" transform="translate(404.65 -269.39)"/><path class="cls-304" d="M-144.65,313.39q-.06-9.11-8-14a1.11,1.11,0,0,0-1-1,6.87,6.87,0,0,0-1.5,3,18.36,18.36,0,0,1-.5-6,6.88,6.88,0,0,0,1-5,8.39,8.39,0,0,1-4-.5q7.65-2.53,5.5-10.5a2.23,2.23,0,0,1-1.5,1v-2a1.62,1.62,0,0,1,1-2q.27,3.64,2,0l2,1a16.9,16.9,0,0,0,1-8h1v10h-1a1.11,1.11,0,0,0-1-1c-.81,2.81-1.47,5.64-2,8.5a19.84,19.84,0,0,0,3,4.5c-.17.33-.33.67-.5,1a7.24,7.24,0,0,0-2.5-2,7,7,0,0,0-1.5,6l8.5,8.5a24.79,24.79,0,0,1,7,1.5h-7Z" transform="translate(404.65 -269.39)"/><path class="cls-305" d="M-245.65,298.39q-1-6-2-12a16.94,16.94,0,0,1,5-11A57.14,57.14,0,0,0-245.65,298.39Z" transform="translate(404.65 -269.39)"/><path class="cls-306" d="M-248.65,287.39h-10v-10h1v9h9a17.22,17.22,0,0,0,0-11,38.66,38.66,0,0,0,7-6h1a13.57,13.57,0,0,0-2,6,16.94,16.94,0,0,0-5,11A.88.88,0,0,1-248.65,287.39Z" transform="translate(404.65 -269.39)"/><path class="cls-307" d="M-360.65,269.39h2a25.66,25.66,0,0,1-3,15c-.33-1-.67-2-1-3A75.14,75.14,0,0,0-360.65,269.39Z" transform="translate(404.65 -269.39)"/><path class="cls-308" d="M101.35,289.39q-1-8.44-1.5-17a26.69,26.69,0,0,1-17.5,13,7.06,7.06,0,0,0-3-2q12-2.52,17-14h11q.8,6,2,12l-1,3q-7.48-27.88-5.5,2,2.76,10.1,11.5,5c.33-1.33.67-2.67,1-4q-1.39-6.45-2.5-13a5.6,5.6,0,0,1-3.5-5h3a39.38,39.38,0,0,0,18.5,19,4.37,4.37,0,0,0,4-2,16.59,16.59,0,0,0-1-10,73.16,73.16,0,0,0-7.5-7h7a9.69,9.69,0,0,0,7.5,3,4.68,4.68,0,0,0,5.5-3h5a5.71,5.71,0,0,1-3,5.5,52,52,0,0,1-16-2q8.49,6.24,6.5,16.5-5.17,4.91-11.5,1.5a45.08,45.08,0,0,1-10-9.5q0,6.24-.5,13a7.81,7.81,0,0,1-8.5,2.5A15.22,15.22,0,0,1,101.35,289.39Z" transform="translate(404.65 -269.39)"/><path class="cls-309" d="M112.35,269.39h4a17.16,17.16,0,0,0,11,9.5,89.52,89.52,0,0,1-7-9.5h6a73.16,73.16,0,0,1,7.5,7,16.59,16.59,0,0,1,1,10,4.37,4.37,0,0,1-4,2A39.38,39.38,0,0,1,112.35,269.39Z" transform="translate(404.65 -269.39)"/><path class="cls-310" d="M107.35,269.39h2a5.6,5.6,0,0,0,3.5,5q1.09,6.54,2.5,13c-.33,1.33-.67,2.67-1,4q-8.73,5.1-11.5-5-2-29.88,5.5-2l1-3Q108.15,275.4,107.35,269.39Z" transform="translate(404.65 -269.39)"/><path class="cls-311" d="M-28.65,278.39a2.65,2.65,0,0,1-3-3v-2a2.73,2.73,0,0,1,3-2Q-32.65,274.89-28.65,278.39Z" transform="translate(404.65 -269.39)"/><path class="cls-312" d="M-227.65,271.39q6,.19,4,5.5a12.81,12.81,0,0,1-5,.5A12,12,0,0,1-227.65,271.39Z" transform="translate(404.65 -269.39)"/><path class="cls-313" d="M17.35,296.39v-18a42.94,42.94,0,0,0-13-1,1.62,1.62,0,0,0-2-1,140.81,140.81,0,0,1,17-1.5,3.31,3.31,0,0,0,2-1.5,51.52,51.52,0,0,0,7-1,18.63,18.63,0,0,1,6,.5,25.77,25.77,0,0,1-8,2,2.23,2.23,0,0,0-1,1.5h-5v19a5.5,5.5,0,0,0-1.5,3A3.34,3.34,0,0,0,17.35,296.39Z" transform="translate(404.65 -269.39)"/><path class="cls-314" d="M-28.65,278.39q7.49-.75,3-6.5a5,5,0,0,0-3-.5q5.53-2.52,6,4Q-23.88,280.92-28.65,278.39Z" transform="translate(404.65 -269.39)"/><path class="cls-315" d="M-51.65,289.39h-5a19.88,19.88,0,0,1,3.5-2,113.39,113.39,0,0,0,3.5-11.5,4.52,4.52,0,0,0-2-4.5q-3.32,3.64-3-2h6a5.58,5.58,0,0,0,1,3,64.51,64.51,0,0,0,16,1v2h-13a20.63,20.63,0,0,0,1,5,5.21,5.21,0,0,1-3-3A47.29,47.29,0,0,0-51.65,289.39Z" transform="translate(404.65 -269.39)"/><path class="cls-316" d="M79.35,283.39q-18.7.78-30-14h47Q91.39,280.87,79.35,283.39Z" transform="translate(404.65 -269.39)"/><path class="cls-317" d="M-28.65,278.39q-4-3.5,0-7a5,5,0,0,1,3,.5Q-21.16,277.65-28.65,278.39Z" transform="translate(404.65 -269.39)"/><path class="cls-318" d="M-196.65,289.39h-5a48.27,48.27,0,0,0-5-11,4.54,4.54,0,0,1-3,2,6.82,6.82,0,0,1,1-4,37,37,0,0,0-12-1l-1-2a64.54,64.54,0,0,0,16-1c.69-1,1.36-2,2-3h5a4.86,4.86,0,0,1-1,4,4.72,4.72,0,0,0-4-2,28.68,28.68,0,0,0,3.5,16A19.88,19.88,0,0,1-196.65,289.39Z" transform="translate(404.65 -269.39)"/><path class="cls-319" d="M-257.65,277.39a3.31,3.31,0,0,1,2-1.5,81.88,81.88,0,0,1-13-1.5,127.56,127.56,0,0,0,16-.5,39.63,39.63,0,0,0,8-4.5h3a38.66,38.66,0,0,1-7,6A18.25,18.25,0,0,1-257.65,277.39Z" transform="translate(404.65 -269.39)"/><path class="cls-320" d="M2.35,276.39a46.34,46.34,0,0,1-13.5-6,29.31,29.31,0,0,0,.5,5,14.53,14.53,0,0,1-4-6h6a39.63,39.63,0,0,0,8,4.5,95.23,95.23,0,0,0,22-.5,3.31,3.31,0,0,1-2,1.5A140.81,140.81,0,0,0,2.35,276.39Z" transform="translate(404.65 -269.39)"/><path class="cls-321" d="M-88.65,269.39h14a18.63,18.63,0,0,1-.5,6,3.64,3.64,0,0,1-2,2A45.1,45.1,0,0,0-88.65,269.39Z" transform="translate(404.65 -269.39)"/><path class="cls-322" d="M-153.65,276.39a18.6,18.6,0,0,0,3-7h2a16.9,16.9,0,0,1-1,8l-2-1Q-153.37,280-153.65,276.39Z" transform="translate(404.65 -269.39)"/><path class="cls-323" d="M-242.65,275.39a13.57,13.57,0,0,1,2-6h2A6.62,6.62,0,0,1-242.65,275.39Z" transform="translate(404.65 -269.39)"/><path class="cls-324" d="M116.35,269.39h4a89.52,89.52,0,0,0,7,9.5A17.16,17.16,0,0,1,116.35,269.39Z" transform="translate(404.65 -269.39)"/><path class="cls-16" d="M-178.65,269.39h15a32,32,0,0,1-14,7A51.52,51.52,0,0,0-178.65,269.39Z" transform="translate(404.65 -269.39)"/><path class="cls-325" d="M-373.65,269.39h4a92.31,92.31,0,0,0-7,8.5,4.61,4.61,0,0,1-4,1A89.52,89.52,0,0,0-373.65,269.39Z" transform="translate(404.65 -269.39)"/><path class="cls-326" d="M-399.65,269.39h14a10,10,0,0,1-8,3Q-397.86,273-399.65,269.39Z" transform="translate(404.65 -269.39)"/><path class="cls-327" d="M133.35,269.39h13a4.68,4.68,0,0,1-5.5,3A9.69,9.69,0,0,1,133.35,269.39Z" transform="translate(404.65 -269.39)"/><path class="cls-328" d="M28.35,271.39l5-2h4A11.32,11.32,0,0,1,28.35,271.39Z" transform="translate(404.65 -269.39)"/><path class="cls-329" d="M-8.65,269.39h42l-5,2v1a51.52,51.52,0,0,1-7,1,95.23,95.23,0,0,1-22,.5A39.63,39.63,0,0,1-8.65,269.39Z" transform="translate(404.65 -269.39)"/><path class="cls-330" d="M-268.65,274.39a82.69,82.69,0,0,1-15-3l-2-2h41a39.63,39.63,0,0,1-8,4.5A127.56,127.56,0,0,1-268.65,274.39Z" transform="translate(404.65 -269.39)"/><path class="cls-331" d="M-283.65,271.39a32,32,0,0,1-8-.5,3.31,3.31,0,0,1-2-1.5h8Z" transform="translate(404.65 -269.39)"/></svg>