<svg id="Layer_1" data-name="Layer 1" xmlns="http://www.w3.org/2000/svg" viewBox="0 0 834.87 358.73"><defs><style>.cls-1{fill:#211f1f;}.cls-1,.cls-10,.cls-11,.cls-12,.cls-13,.cls-14,.cls-15,.cls-16,.cls-17,.cls-18,.cls-19,.cls-2,.cls-20,.cls-21,.cls-22,.cls-23,.cls-24,.cls-25,.cls-26,.cls-27,.cls-28,.cls-3,.cls-4,.cls-5,.cls-6,.cls-7,.cls-8,.cls-9{fill-rule:evenodd;}.cls-2{fill:#0ab0f2;}.cls-3{fill:#ea1c25;}.cls-4{fill:#f2f2f1;}.cls-5{fill:#c6282f;}.cls-6{fill:#561118;}.cls-7{fill:#f7f5f6;}.cls-8{fill:#f4f2f3;}.cls-9{fill:#f4f4f4;}.cls-10{fill:#8f8f15;}.cls-11{fill:#f7ec0b;}.cls-12{fill:#c5c510;}.cls-13{fill:#221f1d;}.cls-14{fill:#0ea7e6;}.cls-15{fill:#f4ea10;}.cls-16{fill:#7b720e;}.cls-17{fill:#221f1f;}.cls-18{fill:#f5f4f4;}.cls-19{fill:#b3ad32;}.cls-20{fill:#99932c;}.cls-21{fill:#b7b420;}.cls-22{fill:#f7ec0a;}.cls-23{fill:#78141d;}.cls-24{fill:#ea1d26;}.cls-25{fill:#b22730;}.cls-26{fill:#c2262c;}.cls-27{fill:#c32832;}.cls-28{fill:#07abeb;}</style></defs><path class="cls-1" d="M61.23,433.32Q60,424,59.52,414.57q-1.79-29.67,27.28-35.8Q42.6,333,58.67,271.37q7.2-10,15.34,0a52,52,0,0,1,17-13.64,4.25,4.25,0,0,0,0-5.11,61.56,61.56,0,0,0-15.34-11.93q-3.84-13.22,9.37-9.38a58.84,58.84,0,0,1,21.31,19.6,103,103,0,0,0,12.79-3.41,19.63,19.63,0,0,0,1.7-4.26,27.11,27.11,0,0,0-14.49-16.19q-.91-15.08,12.79-7.67l11.08,11.08a41.86,41.86,0,0,1,2.56,18.75h23.86a30.07,30.07,0,0,0-2.55-15.34q-8.08-9.7-16.2-18.76,1.65-8.88,10.23-6,24.9,16.13,21.31,45.17a64.62,64.62,0,0,0,12.78,5.12q-3.63-24.48,15.35-40.06A64.14,64.14,0,0,1,241.93,216a30.68,30.68,0,0,1,17.9,19.6q4.31,57.49-53.7,52.85A156.15,156.15,0,0,0,213,305.47q29.69-18.83,64.78-13.64-1.41-59.87,52.85-83.54,9.53.77,6,10.23-50.88,24.21-44.32,80.13a227.5,227.5,0,0,0,20.46,17,352.37,352.37,0,0,1,0-44.32,64.26,64.26,0,0,1,23-38.36A118.68,118.68,0,0,1,409,219.38q23.86,3.09,21.31,26.42a453.89,453.89,0,0,0-24.72,38.36,240.15,240.15,0,0,0,46-6,34,34,0,0,1,11.94,5.11,24.29,24.29,0,0,1,.85,13.64,92.58,92.58,0,0,1-21.31,29.83q-49.2,37.16-107.4,17.05a245,245,0,0,1-58-37.5,153.81,153.81,0,0,0-32.39,0q-31.05,3.36-39.21,33.24,66.6-25.68,98,37.5Q313.83,439,259,407.75l-1.71,1.7q6.39,9.39,12.79,18.76,3.21,24.9-21.31,19.6-49.75-16.94-58-69A210,210,0,0,1,172,391.55a43.63,43.63,0,0,1,11.09,9.38q15.16,29.29-.86,58.81a37.58,37.58,0,0,1-18.75-3.41q-34.17-21.18-15.34-57.1a178.78,178.78,0,0,0-29-3.41q3.39,24.44-15.34,40.06a68.3,68.3,0,0,1-40.92,7.67A20.52,20.52,0,0,0,61.23,433.32Z" transform="translate(369.87 -101.12)"/><path class="cls-2" d="M451.61,291.83a64.87,64.87,0,0,1-32.39,34.94q-38.14,18.81-78.42,5.12a25.21,25.21,0,0,1-6.81-6,135.63,135.63,0,0,0,33.24-34.09A37,37,0,0,0,372.34,268q-6.63-3.79-11.93,1.71-7,27.63-31.54,42.61-16.22-39.39,15.34-69A114.73,114.73,0,0,1,412.4,233q6,3,4.27,9.38-19.5,30-38.36,60.52Q415.15,298.92,451.61,291.83Z" transform="translate(369.87 -101.12)"/><path class="cls-3" d="M211.24,399.23a146.1,146.1,0,0,1-5.11-42.62q5.07.87,6.82-3.41,53.88-24,79.27,29a61.63,61.63,0,0,1,0,20.46,7.45,7.45,0,0,1-6.82,3.4q-16.5-8-33.24-15.34-13.9,3.1-11.08,17.05,8.63,12.47,16.19,25.57a41.23,41.23,0,0,1-25.57-8.52A109.82,109.82,0,0,1,211.24,399.23Z" transform="translate(369.87 -101.12)"/><path class="cls-4" d="M247,237.28q3.14,47.13-42.62,34.09a219.3,219.3,0,0,1,20.46-16.19q10.71-6.15,3.41-15.35a7.28,7.28,0,0,0-6.82,0q-11.55,10.29-23.86,19.61-6.29-21.67,13.63-31.54a96.09,96.09,0,0,1,25.58,0A27.13,27.13,0,0,1,247,237.28Z" transform="translate(369.87 -101.12)"/><path class="cls-5" d="M213,353.2q-1.75,4.28-6.82,3.41a146.1,146.1,0,0,0,5.11,42.62A44.48,44.48,0,0,1,204.42,372V358.31A11.2,11.2,0,0,1,213,353.2Z" transform="translate(369.87 -101.12)"/><path class="cls-6" d="M204.42,358.31V372a10.53,10.53,0,0,1-3.4-8.52C201.25,360.82,202.39,359.11,204.42,358.31Z" transform="translate(369.87 -101.12)"/><path class="cls-7" d="M199.31,310.58a219.82,219.82,0,0,0-7.67,44.32q-18.46,29.49-53.7,29-35-.87-54.55-29.83,9.87,4.05,20.46,8.52,52.6,13.13,72.45-36.65,4.29-24.21-12.79-41.76-50.39-15.11-41.76,36.65,13.74,12.13,29.83,2.55,4.56-8.76-4.26-12.78A26,26,0,0,1,132.83,314q-3.24-26.46,22.16-19.61,16.59,21.24.85,43.48-18.75,18.86-45.18,12.78-33.5-10.51-34.09-46-.87-18.72,13.64-30.68,45.5-26.06,90.35,1.7A56.18,56.18,0,0,1,199.31,310.58Z" transform="translate(369.87 -101.12)"/><path class="cls-8" d="M177.15,416.27a179.73,179.73,0,0,1-1.71,29q-25.33-6.31-19.6-32.39a24.61,24.61,0,0,1,6.82-10.22A24.57,24.57,0,0,1,177.15,416.27Z" transform="translate(369.87 -101.12)"/><path class="cls-9" d="M105.55,392.41q4.47,23.74-15.34,36.65a24,24,0,0,1-15.35-.85Q63.46,387,105.55,392.41Z" transform="translate(369.87 -101.12)"/><path class="cls-10" d="M35.66,285v5.11q0,3.4-3.41,3.41V269.67Q33.95,277.33,35.66,285Z" transform="translate(369.87 -101.12)"/><path class="cls-11" d="M35.66,285q-1.71-7.68-3.41-15.34Q19.59,214.07-35.94,229.6q-36.83,21.83-17.9,60.52,20.06,23.67,39.21,0a53.39,53.39,0,0,0-1.71-23.86q-4.05-8.2-12.78-6-3.69,8,2.55,14.49,5.75,16.86-11.08,12.79-10.91-7.08-10.23-20.46,2.94-28.92,32.39-28.13,30.67.42,35,30.69,4,22.95-9.38,41.76Q-48.48,341.37-93,293.53a112.86,112.86,0,0,1-7.67-17q0-21.35,1.7-42.61,9.84-25.62,35.8-35,48.78-14.62,86.09,19.6Q43.48,249,35.66,285Z" transform="translate(369.87 -101.12)"/><path class="cls-12" d="M-99,233.87q-1.76,21.25-1.7,42.61a109.7,109.7,0,0,1-1.71-27.27A46.06,46.06,0,0,1-99,233.87Z" transform="translate(369.87 -101.12)"/><path class="cls-13" d="M10.08,411.16a29.6,29.6,0,0,1-13.63-6Q-34.64,375.45-18.9,335.3a166.78,166.78,0,0,0-23.86-.85,142,142,0,0,1,.85,35.8,42.31,42.31,0,0,1-12.79,23q-30.54,19.15-52-9.38-16.05-43.74,27.28-59.66c.22-3.11-1.48-4.82-5.12-5.12q-42.36,24.81-84.38,50.29-15,7.11-11.94-8.52l85.24-51.14-7.67-7.67Q-181.92,344.57-261,386.44q-14.49,3.4-8.52-10.23,80.44-42.36,160.24-86.09a154.82,154.82,0,0,0-6-15.34A120.21,120.21,0,0,1-133.11,291a98.28,98.28,0,0,1-58,8.53q-14.44-3.4-29-6,.38,35.07-30.68,51.14a9.42,9.42,0,0,0-5.11-2.55q2.43-1.85.85-4.26a7.11,7.11,0,0,1-7.67.85,4.51,4.51,0,0,0,3.41-4.26q28.63-14.16,27.27-46l-8.52-17.05a6.29,6.29,0,0,0-2.56,1.71,32.39,32.39,0,0,0-.85-15.35,103.33,103.33,0,0,0,30.68,23.87,96.3,96.3,0,0,0,35.8,6.82q33.54,2.77,52.85-23.87a7.86,7.86,0,0,0,1.7-6.82h-15.34a61.51,61.51,0,0,1-32.39-15.34,13.57,13.57,0,0,1-2.55-11.93q4-5.46,9.37-1.71A34.06,34.06,0,0,0-145,243.24q6.83,1.45,13.64,2.56a18,18,0,0,1-10.23,4.26,26.59,26.59,0,0,0,6.82,4.26q5.3-.82,1.71-4.26a34.83,34.83,0,0,1,15.34,0,98.86,98.86,0,0,0,9.38,9.38q.84-3.42,1.7-6.82.85,10.23,1.7,20.46a164.26,164.26,0,0,1,2.56-23.87,109.7,109.7,0,0,0,1.71,27.27,112.86,112.86,0,0,0,7.67,17q44.56,47.85,103.13,17.9,13.34-18.81,9.38-41.76Q15.18,239.4-15.49,239q-29.44-.78-32.39,28.13-.67,13.38,10.23,20.46,16.81,4.06,11.08-12.79-6.24-6.5-2.55-14.49,8.73-2.24,12.78,6a53.39,53.39,0,0,1,1.71,23.86q-19.15,23.67-39.21,0-18.91-38.7,17.9-60.52,55.53-15.53,68.19,40.07v23.86A87.64,87.64,0,0,1,20.31,319.1,111.5,111.5,0,0,1,45,344.67q11.7,22.88,0,46Q34.18,412.19,10.08,411.16Z" transform="translate(369.87 -101.12)"/><path class="cls-14" d="M-53,346.38q3.56,23.79-13.64,40.06-29.79,7.29-32.39-23,3.4-19.64,22.16-27.28l1.71,1.71A46,46,0,0,0-84.53,372q5.81,3.68,10.23-1.7a55.75,55.75,0,0,1,17.9-34.1Q-54.69,341.6-53,346.38Z" transform="translate(369.87 -101.12)"/><path class="cls-15" d="M37.36,375.36A41.54,41.54,0,0,1,22,396.67,25.55,25.55,0,0,1,5,395q-21.55-18.87-14.49-46.88A38.43,38.43,0,0,1-2.7,334.45Q.83,353.71,5,372.8a10.06,10.06,0,0,0,9.38-.85,246.24,246.24,0,0,0-2.56-33.24q.86-3.84,1.7-7.67a79.19,79.19,0,0,1,22.17,25.57A68,68,0,0,1,37.36,375.36Z" transform="translate(369.87 -101.12)"/><path class="cls-16" d="M37.36,375.36a68,68,0,0,0-1.7-18.75,3.82,3.82,0,0,1,2.55,1.7A29.54,29.54,0,0,1,37.36,375.36Z" transform="translate(369.87 -101.12)"/><path class="cls-17" d="M35.66,290.12V285q7.83-36-12.79-66.49-37.3-34.23-86.09-19.6-26,9.35-35.8,35a46.06,46.06,0,0,0-3.41,15.34A164.26,164.26,0,0,0-105,273.08q-.84-10.23-1.7-20.46-.86,3.4-1.7,6.82a98.86,98.86,0,0,1-9.38-9.38,34.83,34.83,0,0,0-15.34,0q3.59,3.44-1.71,4.26a26.59,26.59,0,0,1-6.82-4.26,18,18,0,0,0,10.23-4.26h8.52q-10.58-65.13-76.71-66.49l-22.16.86a12.26,12.26,0,0,0-3.41,4.26q20.47,32.4,40.91,64.78l-3.41,1.7q-8.58-2.59-17-5.11-11.81-3.72-23.87-8.52a28.69,28.69,0,0,0-13.64-1.71,11.76,11.76,0,0,0-6.82-1.7,74.67,74.67,0,0,0,5.12,23.86,32.39,32.39,0,0,1,.85,15.35,6.29,6.29,0,0,1,2.56-1.71l8.52,17.05a48.56,48.56,0,0,0-15.34,7.67l-20.46,20.46q-13.21,3.82-9.37-9.38a143.44,143.44,0,0,1,31.53-27.28q2.61-1.27.86-3.41-52.89-38.16-97.17,8.53a72.23,72.23,0,0,0-9.38,18.75,230.58,230.58,0,0,1,61.37-9.38A200.42,200.42,0,0,0-310.41,343a114.83,114.83,0,0,0,51.15-8.52,4.51,4.51,0,0,1-3.41,4.26,7.11,7.11,0,0,0,7.67-.85q1.58,2.42-.85,4.26a9.42,9.42,0,0,1,5.11,2.55,113.87,113.87,0,0,1-63.08,9.38Q-324,349.79-324,338.71a305.4,305.4,0,0,1,11.93-28.13,94.25,94.25,0,0,0-30.69,4.26,65.86,65.86,0,0,0-20.45,14.49,6.77,6.77,0,0,1-6-3.41A42.35,42.35,0,0,1-365,298.65q33-67.62,105.7-46-1.9-8.88-3.41-17.9,2-12.25,14.49-14.49,16.43,5.07,33.24,8.52l1.7-1.7q-12.15-18.33-23-37.51-2.87-15.15,11.08-21.31Q-143,153.68-111.8,230.46q14.6-38.28,55.4-46a46.21,46.21,0,0,1-7.67-17.05,206,206,0,0,1,0-37.5,93.24,93.24,0,0,1,16.19-21.31q15.85-12.94,34.1-3.41a98.33,98.33,0,0,1,28.13,41.76q5.58,23.66-11.08,40.92,8.42,5.92,17,11.93,2.07-16.2,4.26-32.39a37.3,37.3,0,0,1,21.31-22.16,860,860,0,0,1,93.76-.85,12.13,12.13,0,0,1,2.56,12.78q-23.49,72.49-99.73,69.9a141.79,141.79,0,0,1,7.68,51.14,20.61,20.61,0,0,1-6,14.49A7.21,7.21,0,0,1,35.66,290.12Z" transform="translate(369.87 -101.12)"/><path class="cls-18" d="M1.56,148.63q4.72,22.94-15.34,34.09a164.8,164.8,0,0,0-6-30.68,54,54,0,0,0-9.37-17.9q-8.6-2.92-10.23,6,4.64,11,9.37,22.16A37.21,37.21,0,0,1-28.27,181q-16.53,3.22-22.16-13.64a170.33,170.33,0,0,1,0-34.09q15.38-32.76,39.21-6.82A109.11,109.11,0,0,1,1.56,148.63Z" transform="translate(369.87 -101.12)"/><path class="cls-19" d="M37.36,203.18a1.89,1.89,0,0,1-1.7,1.71,43.22,43.22,0,0,1,0-23.87A72.76,72.76,0,0,0,37.36,203.18Z" transform="translate(369.87 -101.12)"/><path class="cls-20" d="M62.93,213.41a22.55,22.55,0,0,1-17,0,1.9,1.9,0,0,1,1.71-1.71A35.43,35.43,0,0,0,62.93,213.41Z" transform="translate(369.87 -101.12)"/><path class="cls-21" d="M127.71,158.86q-37.9-2.55-76.71-1.71a454.35,454.35,0,0,1,78.42,0A1.88,1.88,0,0,1,127.71,158.86Z" transform="translate(369.87 -101.12)"/><path class="cls-22" d="M127.71,158.86q-16.18,46.89-64.78,54.55a35.43,35.43,0,0,1-15.34-1.71q16.66-11.08,34.09-21.3,14.73-12.06-3.41-13.64-20.08,13.88-40.91,26.42A72.76,72.76,0,0,1,35.66,181Q34.4,163,51,157.15,89.81,156.31,127.71,158.86Z" transform="translate(369.87 -101.12)"/><path class="cls-23" d="M-124.59,264.55a33.15,33.15,0,0,0-13.64-6.82h15.34A7.86,7.86,0,0,1-124.59,264.55Z" transform="translate(369.87 -101.12)"/><path class="cls-24" d="M-131.41,245.8q-6.81-1.11-13.64-2.56a34.06,34.06,0,0,1-18.75-14.49q-5-6.5-11.08,0-3,8.76,4.26,13.64a61.51,61.51,0,0,0,32.39,15.34,33.15,33.15,0,0,1,13.64,6.82q-19.31,26.65-52.85,23.87a3.84,3.84,0,0,0-1.7-2.56,185.3,185.3,0,0,1-34.1-4.26,103.33,103.33,0,0,1-30.68-23.87A74.67,74.67,0,0,1-249,233.87a11.76,11.76,0,0,1,6.82,1.7,143.1,143.1,0,0,0,37.51,10.23q8.44,2.5,17,5.11l3.41-1.7q-20.44-32.39-40.91-64.78a12.26,12.26,0,0,1,3.41-4.26l22.16-.86q66.12,1.37,76.71,66.49Z" transform="translate(369.87 -101.12)"/><path class="cls-25" d="M-163.8,228.75q-5.4-3.75-9.37,1.71a13.57,13.57,0,0,0,2.55,11.93q-7.24-4.87-4.26-13.64Q-168.76,222.26-163.8,228.75Z" transform="translate(369.87 -101.12)"/><path class="cls-26" d="M-177.44,288.42a96.3,96.3,0,0,1-35.8-6.82,185.3,185.3,0,0,0,34.1,4.26A3.84,3.84,0,0,1-177.44,288.42Z" transform="translate(369.87 -101.12)"/><path class="cls-27" d="M-204.71,245.8a143.1,143.1,0,0,1-37.51-10.23,28.69,28.69,0,0,1,13.64,1.71Q-216.52,242.07-204.71,245.8Z" transform="translate(369.87 -101.12)"/><path class="cls-28" d="M-232,288.42q1.37,31.88-27.27,46A114.83,114.83,0,0,1-310.41,343a200.42,200.42,0,0,1,20.46-48.59,230.58,230.58,0,0,0-61.37,9.38A72.23,72.23,0,0,1-341.94,285q44.28-46.69,97.17-8.53,1.76,2.13-.86,3.41a143.44,143.44,0,0,0-31.53,27.28q-3.84,13.21,9.37,9.38l20.46-20.46A48.56,48.56,0,0,1-232,288.42Z" transform="translate(369.87 -101.12)"/></svg>